<svg width="34" height="34" viewBox="0 0 34 34" fill="none" xmlns="http://www.w3.org/2000/svg">
<path d="M3.51 26.76C2.84 25.21 1.92 23.76 1.38 22.15C0.710442 20.0387 0.474687 17.8139 0.6869 15.6091C0.899113 13.4044 1.55492 11.2653 2.61489 9.32052C3.67487 7.37571 5.11712 5.66529 6.85498 4.29208C8.59283 2.91887 10.5904 1.91122 12.7276 1.32969C14.8648 0.748168 17.0976 0.604767 19.2916 0.908125C21.4856 1.21148 23.5957 1.95534 25.4949 3.09497C27.3942 4.23459 29.0434 5.74646 30.3434 7.5397C31.6435 9.33295 32.5675 11.3705 33.06 13.53C33.5473 15.6167 33.6153 17.7795 33.2599 19.8927C32.9046 22.0059 32.133 24.0274 30.99 25.84C30.82 26.14 30.53 26.38 30.54 26.76C30.0892 27.0801 29.5385 27.2278 28.9881 27.1765C28.4376 27.1251 27.9238 26.878 27.54 26.48C27.4839 26.3379 27.4637 26.1842 27.4812 26.0325C27.4986 25.8808 27.5532 25.7357 27.64 25.61C28.2623 24.4799 28.5408 23.1926 28.4413 21.9064C28.3418 20.6201 27.8687 19.391 27.08 18.37C26.9066 18.0166 26.6614 17.7033 26.36 17.45C25.9797 17.1859 25.7116 16.7896 25.6081 16.3383C25.5045 15.8871 25.5729 15.4135 25.8 15.01C25.9872 14.6179 26.0416 14.1755 25.955 13.7497C25.8684 13.3239 25.6455 12.9378 25.32 12.65C24.86 12.13 24.2 11.65 24.32 10.77C24.87 10.06 24.72 9.63002 23.82 9.49002C23.5222 9.48409 23.2357 9.37445 23.01 9.18001C22.66 8.40001 22.01 8.44001 21.28 8.47001C20.21 8.47001 19.14 8.47001 18.08 8.47001C17.34 8.47001 17.95 8.80002 17.94 8.99002C17.77 9.54002 17.27 9.45001 16.87 9.54001C16.47 9.63001 16.07 9.54001 15.87 10.12C16.87 10.79 18.19 10.04 19.2 10.71C19.5292 11.4001 19.6415 12.1739 19.5219 12.9291C19.4022 13.6843 19.0564 14.3854 18.53 14.94C17.9 15.58 17.53 16.46 16.66 16.94C16.03 16.94 16.11 16.54 16.22 16.12C16.3407 15.8159 16.3926 15.4889 16.3722 15.1624C16.3517 14.8359 16.2594 14.518 16.1017 14.2313C15.9441 13.9447 15.725 13.6964 15.4602 13.5043C15.1954 13.3122 14.8914 13.1809 14.57 13.12C12.6731 12.5923 10.7369 12.2177 8.78 12C7.41 11.85 6.15 12.12 5.6 13.64C6.05 14.87 7.28 15.64 7.53 17C7.48903 17.3023 7.3398 17.5794 7.11 17.78C6.20818 18.7939 5.67665 20.0835 5.60219 21.4384C5.52773 22.7933 5.91471 24.1334 6.7 25.24C6.97 25.66 7.51001 25.96 7.34001 26.59C6.16001 27 4.88001 27.47 3.51 26.76Z" fill="#CBEEDB"/>
<path d="M29.77 27.57C28.2242 29.4575 26.2787 30.9783 24.0738 32.0225C21.8689 33.0667 19.4597 33.6084 17.02 33.6084C14.5803 33.6084 12.1711 33.0667 9.96619 32.0225C7.7613 30.9783 5.81575 29.4575 4.26999 27.57C4.42945 27.4207 4.62348 27.3133 4.83466 27.2575C5.04584 27.2016 5.26758 27.1991 5.48 27.25C9.08 27.59 12.71 27.5 16.31 27.57C20.31 27.64 24.4 27.57 28.43 27.27C28.91 27.23 29.4 27.16 29.77 27.57Z" fill="#CBEEDB"/>
<path d="M29.77 27.57C25.7508 27.933 21.7148 28.0766 17.68 28C13.206 28.1116 8.72934 27.978 4.26999 27.6C3.61818 27.6176 2.97022 27.4948 2.37 27.24C2.6977 26.9816 3.09411 26.8251 3.50999 26.79C4.83631 26.8349 6.16166 26.6764 7.43999 26.32C8.75041 26.3951 10.0651 26.3247 11.36 26.11C14.95 26.11 18.53 26.11 22.12 26.11C22.29 26.11 22.12 26.03 22.24 26.11C23.0614 26.5704 23.9809 26.8278 24.922 26.8608C25.863 26.8939 26.7983 26.7016 27.65 26.3C28.5 27.1 29.57 26.68 30.54 26.79C30.8888 26.9771 31.2874 27.0505 31.68 27C31.1344 27.417 30.4549 27.6198 29.77 27.57V27.57Z" fill="#99DFB8"/>
<path d="M27.68 26.27C25.8 27.67 24.57 27.67 22.44 26.27C21.4936 25.611 20.3817 25.23 19.23 25.17C17.7008 24.8479 16.2166 24.3409 14.81 23.66C13.86 23.3 13.31 23.38 12.92 24.43C12.62 25.25 12.29 26.2 11.17 26.32C10.6004 26.6229 9.96514 26.7813 9.32001 26.7813C8.67487 26.7813 8.0396 26.6229 7.47001 26.32C6.79523 25.7342 6.25716 25.0075 5.89373 24.1912C5.53029 23.3748 5.35034 22.4887 5.36655 21.5953C5.38275 20.7019 5.59474 19.8229 5.98755 19.0203C6.38036 18.2176 6.94443 17.5109 7.64001 16.95C9.12001 17.43 10.1 18.68 11.41 19.43C11.8117 19.7607 12.2556 20.0365 12.73 20.25C12.7573 19.1846 12.6768 18.1192 12.49 17.07C12.34 16.37 11.76 16.13 11.18 15.93C9.66001 15.4033 8.14334 14.86 6.63 14.3C6.18312 14.14 5.75944 13.9214 5.37001 13.65C5.42195 13.1983 5.6107 12.7734 5.91096 12.432C6.21123 12.0906 6.60867 11.8492 7.05001 11.74C7.85498 11.5403 8.6926 11.5097 9.51001 11.65C11.13 11.95 12.74 12.3 14.37 12.58C15.3495 12.8204 16.2153 13.3929 16.82 14.2C17.0195 14.4364 17.129 14.7357 17.129 15.045C17.129 15.3543 17.0195 15.6536 16.82 15.89C16.62 16.19 16.16 16.43 16.59 16.89C16.59 16.89 16.65 17 16.59 17.01C15.26 18.6 16.32 19.89 17.12 21.21C17.48 21.81 17.81 22.42 18.12 23.06C18.23 22.96 18.12 22.86 18.12 22.78C17.47 19.5 17.61 19.17 20.42 17.32C20.6973 17.096 21.0325 16.9555 21.3866 16.9147C21.7407 16.874 22.0991 16.9348 22.42 17.09C23.7343 17.6905 25.1791 17.9485 26.62 17.84C26.8816 17.8794 27.1272 17.9902 27.33 18.16C29.3 20.91 29.41 23.53 27.68 26.27Z" fill="#4B4B4B"/>
<path d="M26.68 18.1C25.2385 18.2824 23.7754 18.0281 22.48 17.37C22.1371 17.1841 21.7424 17.1166 21.3572 17.1781C20.972 17.2396 20.618 17.4266 20.35 17.71C18.7 18.92 17.28 20.16 18.43 22.5C18.5512 22.996 18.5512 23.514 18.43 24.01C17.43 22.28 16.33 20.59 15.43 18.78C15.04 17.97 16.21 17.54 16.52 16.84L18.77 14.16C19.63 13.16 18.96 11.9 19.21 10.79C19.2649 10.665 19.3543 10.5583 19.4676 10.4821C19.5809 10.406 19.7135 10.3636 19.85 10.36C19.34 9.74 18.26 9.90001 18.01 8.99001C17.4657 8.88238 16.9829 8.57123 16.66 8.12H21.31C22.31 8.92 22.71 10.12 23.31 11.21C23.71 11.88 24.09 12.57 24.51 13.21C24.6671 13.4206 24.7732 13.6648 24.8201 13.9233C24.8669 14.1818 24.8532 14.4477 24.78 14.7C24.6455 15.068 24.6472 15.472 24.7848 15.8388C24.9223 16.2057 25.1867 16.5112 25.53 16.7C26.09 17.07 26.68 17.35 26.68 18.1Z" fill="#008D3F"/>
<path d="M5.34 13.62C7.63592 14.2697 9.89576 15.0408 12.11 15.93C12.2798 15.9654 12.4329 16.0564 12.5452 16.1886C12.6575 16.3208 12.7225 16.4867 12.73 16.66C12.87 17.9 13.06 19.15 13.18 20.4C13.18 20.9 12.97 21.05 12.56 20.71C10.95 19.39 9.10999 18.37 7.60999 16.91C6.84999 15.82 6.1 14.72 5.34 13.62Z" fill="#018D3F"/>
<path d="M26.68 18.1C26.26 17.73 25.87 17.31 25.42 16.98C24.58 16.38 23.99 15.75 24.58 14.64C24.93 13.95 24.35 13.52 24.08 13C23.81 12.48 23.49 11.85 23.2 11.28C22.91 10.71 23.29 10.61 23.68 10.49C23.832 10.4576 23.9901 10.4695 24.1355 10.5245C24.2809 10.5795 24.4075 10.6751 24.5 10.8C24.7986 11.5698 25.2789 12.256 25.9 12.8C26.194 13.0313 26.3951 13.3604 26.4666 13.7275C26.5382 14.0947 26.4755 14.4753 26.29 14.8C26.1259 15.0129 26.011 15.2596 25.9536 15.5222C25.8962 15.7848 25.8976 16.0568 25.9579 16.3188C26.0181 16.5808 26.1356 16.8262 26.302 17.0373C26.4683 17.2485 26.6794 17.4201 26.92 17.54C27.11 17.66 27.19 17.96 27.33 18.17L26.68 18.1Z" fill="#66CF94"/>
<path d="M18.06 9C18.75 9.57 19.78 9.6 20.39 10.42L19.26 10.8H16.51C15.94 10.8 15.38 10.74 15.4 10.02C15.42 9.3 15.98 9.26 16.54 9.23C17.1 9.2 17.6 9.37 18.06 9Z" fill="#4E504F"/>
<path d="M24.49 10.8L23.77 10.73C22.54 10.41 22.44 10.16 23.18 9.21002H24.18C24.3911 9.18351 24.605 9.22941 24.7866 9.34021C24.9683 9.45102 25.107 9.62018 25.18 9.82003C25.38 10.4 25 10.68 24.49 10.8Z" fill="#515452"/>
<path d="M23.18 9.21002C22.62 10.01 22.97 10.45 23.77 10.73C23.42 10.73 23.2 10.91 23.19 11.28L21.36 8.12C22.12 8.22 23.34 7.57002 23.18 9.21002Z" fill="#64CA91"/>
<path d="M11.14 26.29C12.0001 25.6096 12.6174 24.6696 12.9 23.61C13.08 22.89 13.29 22.7 14.03 23.02C15.39 23.59 16.8 24.02 18.18 24.53C18.6474 24.7627 19.1696 24.863 19.69 24.82C20.2384 24.6894 20.8155 24.7611 21.3152 25.022C21.815 25.2828 22.2037 25.7154 22.41 26.24C22.41 26.24 22.35 26.33 22.31 26.33C18.5915 26.6117 14.8564 26.5983 11.14 26.29V26.29Z" fill="#CAEDDA"/>
<path d="M26.87 22.61C26.81 22.92 26.74 23.35 26.62 23.76C26.35 24.68 25.9 25.5 24.85 25.63C24.3664 25.6706 23.8826 25.5543 23.4702 25.2986C23.0578 25.0429 22.7387 24.6612 22.56 24.21C22.1379 23.5438 21.8861 22.7839 21.8268 21.9975C21.7676 21.211 21.9026 20.422 22.22 19.7C22.3252 19.3607 22.5224 19.0572 22.7898 18.8233C23.0573 18.5894 23.3843 18.4343 23.7346 18.3752C24.085 18.3161 24.4448 18.3554 24.7741 18.4886C25.1034 18.6219 25.3893 18.8439 25.6 19.13C26.4305 20.0981 26.8818 21.3345 26.87 22.61Z" fill="#FDFDFD"/>
<path d="M9.43 24.88C7.66 24.95 6.09 22.24 6.8 20.82C7.03 20.37 7.25 20.57 7.53 20.68C8.49274 21.0621 9.47397 21.3958 10.47 21.68C11.47 21.92 11.47 22.36 11.15 23.17C11.0337 23.5785 10.8145 23.9502 10.5133 24.2496C10.2121 24.549 9.83912 24.7661 9.43 24.88V24.88Z" fill="#FCFCFC"/>
</svg>
