<svg width="36" height="34" viewBox="0 0 36 34" fill="none" xmlns="http://www.w3.org/2000/svg">
<path d="M0.970001 16.3C0.970001 10.3 5.43 4.09 11.36 1.9C18.03 -0.550002 24 0.900005 29.05 5.72001C31.6973 8.25416 33.2932 11.6923 33.52 15.35C33.52 15.99 33.69 16.63 33.78 17.28C32.13 17.28 30.85 16.35 29.46 15.68C28.4095 14.6041 27.1458 13.7594 25.75 13.2C24.1315 12.5255 22.3933 12.1853 20.64 12.2C17.58 12.2 14.52 12.2 11.47 12.2C10.265 12.0599 9.049 12.0398 7.84 12.14C6.11054 12.4362 4.56066 13.3847 3.51 14.79C3.25838 15.2442 2.8906 15.6233 2.44429 15.8886C1.99799 16.154 1.4892 16.2959 0.970001 16.3V16.3Z" fill="#CBEEDB"/>
<path d="M0.969992 16.3C2.00414 15.8555 2.89405 15.1318 3.53999 14.21C4.27172 13.2854 5.22943 12.565 6.3207 12.1183C7.41197 11.6716 8.59995 11.5138 9.76999 11.66C10.24 11.66 10.72 11.75 11.19 11.79C11.66 12.04 12.19 11.92 12.68 12.16C13.17 12.4 13.85 12.49 13.38 13.3C11.61 13.71 9.81999 13.42 8.02999 13.5C7.23989 13.4534 6.45636 13.6677 5.79999 14.11C5.52999 14.33 5.22999 14.59 5.36999 14.98C5.50999 15.37 5.85999 15.32 6.14999 15.33C7.94999 15.33 9.73999 15.33 11.53 15.33C12.93 15.33 14.32 15.33 15.72 15.33C15.9394 15.3347 16.1575 15.3649 16.37 15.42C17.5617 15.8815 18.7269 16.409 19.86 17C20.4 17.26 21.01 17.54 20.76 18.36C20.42 18.86 19.76 18.57 19.3 18.91C19.49 19.54 20 19.72 20.55 19.86C21.1 20 21.55 20.03 21.87 20.57C21.9809 21.2457 21.8946 21.939 21.6215 22.5669C21.3483 23.1947 20.8999 23.7305 20.33 24.11C19.7386 24.2763 19.1219 24.3338 18.51 24.28C16.44 24.28 16.43 24.28 15.99 22.28C15.9038 21.8048 15.6894 21.3622 15.37 21C15.2409 20.8204 15.0671 20.6777 14.8659 20.5859C14.6647 20.4941 14.443 20.4565 14.2228 20.4767C14.0026 20.4969 13.7914 20.5742 13.6103 20.7011C13.4291 20.828 13.2843 20.9999 13.19 21.2C12.8963 21.7579 12.7226 22.371 12.68 23C12.6781 23.1753 12.6397 23.3483 12.5672 23.5079C12.4947 23.6675 12.3897 23.8103 12.2588 23.927C12.128 24.0437 11.9743 24.1318 11.8074 24.1857C11.6406 24.2396 11.4644 24.2581 11.29 24.24C9.88999 24.24 8.49999 24.24 7.09999 24.24C6.91467 24.2712 6.72485 24.2631 6.54288 24.2161C6.3609 24.1692 6.19083 24.0845 6.04371 23.9676C5.89659 23.8506 5.77572 23.7041 5.68893 23.5374C5.60215 23.3707 5.55141 23.1876 5.53999 23C5.48694 22.3875 5.31003 21.7921 5.01999 21.25C4.91514 21.0054 4.74081 20.7969 4.51862 20.6504C4.29643 20.5039 4.03613 20.4258 3.76999 20.4258C3.50385 20.4258 3.24355 20.5039 3.02136 20.6504C2.79917 20.7969 2.62485 21.0054 2.51999 21.25C2.14999 21.84 2.26999 22.64 1.69999 23.14C-0.0300084 22.46 0.359992 20.98 0.369992 19.64C0.709992 19.3 1.26999 19.34 1.58999 18.93C2.16999 18.19 2.00999 17.61 1.11999 17.37C0.90337 17.3383 0.703126 17.2365 0.549992 17.08L0.969992 16.3Z" fill="#008D3F"/>
<path d="M30.38 27.06C27.997 30.0357 24.7007 32.1442 21 33.06C14.91 34.54 7.72 31.94 4.34 27.06C4.69966 26.8093 5.11132 26.6431 5.54422 26.5739C5.97712 26.5046 6.42007 26.5341 6.84 26.66C10.84 27.07 14.84 26.85 18.84 26.86C22.2372 26.9884 25.6389 26.9317 29.03 26.69C29.2677 26.6278 29.5176 26.6292 29.7546 26.6942C29.9915 26.7591 30.2072 26.8853 30.38 27.06V27.06Z" fill="#CBEEDB"/>
<path d="M1.67999 23.12C1.65859 22.3343 1.84854 21.5572 2.22999 20.87C2.36808 20.5799 2.58557 20.3348 2.85725 20.1632C3.12893 19.9917 3.44367 19.9006 3.76499 19.9006C4.08631 19.9006 4.40105 19.9917 4.67273 20.1632C4.94441 20.3348 5.1619 20.5799 5.29999 20.87C5.64695 21.3795 5.82852 21.9836 5.81999 22.6C5.81999 23.88 6.45999 23.96 7.44999 23.92C8.75999 23.86 10.07 23.92 11.37 23.92C11.96 23.92 12.23 23.75 12.26 23.11C12.2792 22.5007 12.4009 21.8989 12.62 21.33C12.7132 20.9683 12.9142 20.6434 13.1964 20.3987C13.4787 20.154 13.8287 20.001 14.2 19.96C15.09 19.87 15.55 20.45 15.98 21.06C16.1224 21.3262 16.2331 21.6081 16.31 21.9C16.57 22.51 16.09 23.38 16.64 23.75C17.19 24.12 18.17 23.87 18.94 23.91C19.42 23.91 19.94 23.91 20.38 23.91C21.53 23.33 22.78 23.58 23.98 23.58C24.4122 23.6312 24.8498 23.552 25.2365 23.3524C25.6233 23.1528 25.9414 22.842 26.15 22.46C26.3863 22.0389 26.7399 21.6956 27.1678 21.4719C27.5957 21.2482 28.0794 21.1537 28.56 21.2C29.74 21.2 30.91 21.2 32.09 21.2C33.78 21.25 34.36 22 34.09 23.73C32.71 23.73 32.29 24.73 31.83 25.78C31.16 26.78 28.96 27.1 27.77 26.45C27.43 26.26 27.16 25.97 26.83 25.77C24.0244 25.5701 21.2092 25.54 18.4 25.68C18.2294 25.7132 18.0726 25.7968 17.95 25.92C17.2002 26.4558 16.3054 26.7513 15.384 26.7673C14.4626 26.7834 13.558 26.5193 12.79 26.01C11.0413 25.3986 9.13972 25.3811 7.37999 25.96C6.22999 26.88 4.86999 26.7 3.54999 26.65C3.31686 26.6307 3.09547 26.5396 2.91635 26.3891C2.73723 26.2386 2.60923 26.0363 2.54999 25.81C1.95785 25.0408 1.65042 24.0903 1.67999 23.12V23.12Z" fill="#4B4B4B"/>
<path d="M2.54999 25.74C3.24948 26.1695 4.0575 26.3893 4.87818 26.3734C5.69885 26.3574 6.49772 26.1064 7.17999 25.65C9.1196 25.2999 11.108 25.3203 13.04 25.71C13.7244 26.17 14.5303 26.4157 15.355 26.4157C16.1796 26.4157 16.9856 26.17 17.67 25.71C18.1365 25.4762 18.664 25.3924 19.18 25.47H27.18C27.8142 26.0321 28.6201 26.3628 29.4664 26.4082C30.3126 26.4536 31.1493 26.211 31.84 25.72C33.05 26.26 34.41 25.92 35.9 26.51C34.0771 26.9065 32.2155 27.0977 30.35 27.08C23.85 27.51 17.35 27.2 10.84 27.32C8.64999 27.32 6.49999 26.85 4.30999 27.07L0.209991 26.65C1.15999 26 2.04999 26.41 2.54999 25.74Z" fill="#99DFB9"/>
<path d="M20.68 18.29C20.68 17.62 20.17 17.44 19.68 17.23L16.38 15.73C16.5004 15.6037 16.6468 15.5052 16.8092 15.4413C16.9715 15.3774 17.1458 15.3496 17.32 15.36C21.42 15.36 25.51 15.18 29.6 15.44L33.76 17.28C33.9604 17.3708 34.1405 17.5007 34.2899 17.6621C34.4393 17.8236 34.555 18.0132 34.63 18.22C34.38 18.47 34.04 18.33 33.74 18.39C33.2246 18.7129 32.6133 18.8472 32.01 18.77C30.33 18.77 28.64 18.7 26.96 18.83C24.96 18.64 22.96 18.93 21.01 18.61C20.8704 18.5389 20.7554 18.4274 20.68 18.29V18.29Z" fill="#66CF94"/>
<path d="M34.13 23.66C33.57 21.51 33.57 21.51 31.39 21.51C30.7806 21.5499 30.1693 21.5499 29.56 21.51C27.93 21.29 26.67 21.7 26.03 23.35C25.84 23.84 25.43 23.9 24.96 23.89H20.4C21.04 22.89 21.83 21.89 21.68 20.54C21.7577 20.4337 21.8658 20.3535 21.99 20.31C22.6417 20.2304 23.3029 20.3058 23.92 20.53C24.5618 20.7998 25.2736 20.8551 25.9494 20.6875C26.6251 20.5199 27.2286 20.1385 27.67 19.6C28.3091 19.4433 28.9843 19.5438 29.55 19.88C30.0375 20.168 30.6013 20.3003 31.166 20.2592C31.7307 20.2181 32.2694 20.0056 32.71 19.65C32.8067 19.5611 32.9267 19.5016 33.056 19.4786C33.1854 19.4556 33.3186 19.47 33.44 19.52L34.44 20.91C35.09 20.84 34.92 20.04 35.44 19.84C36.04 20.93 35.51 22.6 34.13 23.66Z" fill="#01B04F"/>
<path d="M33.44 19.46C31.62 21.52 29.71 20.05 27.82 19.62C27.5803 19.5486 27.367 19.408 27.2069 19.2159C27.0468 19.0238 26.947 18.7886 26.92 18.54C29.2 18.12 31.48 18.42 33.76 18.39L33.44 19.46Z" fill="#4A4E4C"/>
<path d="M0.550001 17.06C0.592734 17.0498 0.637267 17.0498 0.68 17.06C1.27 17.31 2.35 16.53 2.46 17.61C2.6 18.89 1.74 19.61 0.370001 19.61C0.100221 18.7684 0.164676 17.8553 0.550001 17.06V17.06Z" fill="#E16956"/>
<path d="M29.62 15.44C29.18 15.87 28.62 15.69 28.13 15.7C24.22 15.7 20.31 15.7 16.4 15.7H15.87C15.1573 15.0843 14.5165 14.3899 13.96 13.63C13.59 13.24 13.77 12.94 14.25 12.79C18.25 12.72 22.25 12.29 26.15 13.08C27.4928 13.5503 28.6892 14.3639 29.62 15.44V15.44Z" fill="#02B150"/>
<path d="M26.15 13.11H13.84C13.8038 13.141 13.7577 13.158 13.71 13.158C13.6623 13.158 13.6162 13.141 13.58 13.11C12.97 12.33 11.93 12.33 11.19 11.78C14.8 11.78 18.4 11.71 22 11.78C23.4833 11.8099 24.9256 12.2721 26.15 13.11V13.11Z" fill="#66CF94"/>
<path d="M13.58 13.12C13.666 13.1049 13.754 13.1049 13.84 13.12C14.6994 13.8075 15.3846 14.688 15.84 15.69H5.91C5.45 15.69 4.86 15.84 4.67 15.25C4.48 14.66 4.88 14.25 5.27 13.9C5.86058 13.3736 6.62909 13.0912 7.42 13.11C9.49 13.15 11.54 13.12 13.58 13.12Z" fill="#494C4A"/>
<path d="M21.86 20.4L21.68 20.48C20.53 20.04 19.03 20.16 18.57 18.39L20.68 18.29L20.98 18.43C21.3052 18.6343 21.5625 18.9307 21.7191 19.2814C21.8758 19.6321 21.9248 20.0214 21.86 20.4V20.4Z" fill="#EEC744"/>
<path d="M15.17 23.12C15.09 23.83 15.08 24.79 14.29 24.8C13.5 24.81 13.29 23.8 13.29 23.1C13.29 22.4 13.38 21.46 14.17 21.45C15.16 21.43 15.05 22.45 15.17 23.12Z" fill="#F7F7F7"/>
<path d="M2.73 23.09C2.81 22.43 2.67 21.42 3.66 21.44C4.65 21.46 4.51 22.44 4.5 23.1C4.49 23.76 4.5 24.83 3.56 24.8C2.62 24.77 2.76 23.82 2.73 23.09Z" fill="#F6F6F6"/>
<path d="M27.21 25.45C26.91 25.82 26.5 25.71 26.12 25.71H17.67C17.6925 25.5367 17.781 25.3787 17.9169 25.2689C18.0528 25.159 18.2258 25.1057 18.4 25.12H26.7C26.8092 25.113 26.9177 25.1414 27.0095 25.2008C27.1013 25.2602 27.1716 25.3476 27.21 25.45V25.45Z" fill="#C8ECD9"/>
<path d="M13.04 25.71L7.17999 25.65C8.02999 24.81 12.26 24.86 13.04 25.71Z" fill="#C8ECD9"/>
<path d="M21.86 20.4C21.57 19.74 21.27 19.08 20.98 18.4C22.9792 18.2535 24.9875 18.2904 26.98 18.51L27.87 19.59C26.81 21.4 25.23 21.16 23.58 20.7C22.98 20.57 22.41 20.51 21.86 20.4Z" fill="#FBFDFC"/>
</svg>
