<svg width="34" height="34" viewBox="0 0 34 34" fill="none" xmlns="http://www.w3.org/2000/svg">
<path d="M1.99999 22.61C0.728365 19.1659 0.652152 15.3942 1.78361 11.9016C2.91507 8.4089 5.18843 5.39834 8.23802 3.35413C11.2876 1.30991 14.9361 0.350873 18.5968 0.631265C22.2574 0.911658 25.7173 2.41519 28.42 4.90001C31.3376 7.52394 33.1676 11.1447 33.55 15.05C33.77 17.604 33.4846 20.1764 32.71 22.62C31.19 23.37 29.6 22.96 28.03 22.91C27.03 22.12 25.94 21.57 24.92 20.91C24.8139 20.6528 24.7563 20.3782 24.75 20.1C24.5819 19.3815 24.4881 18.6477 24.47 17.91C24.6158 17.641 24.8169 17.4058 25.06 17.22C26.8 15.69 26.99 14.1 25.69 12.14C24.3041 10.2656 22.4089 8.82859 20.23 8.00001C18.7842 7.36067 17.2503 6.94265 15.68 6.76001C15.2615 6.65841 14.825 6.65689 14.4058 6.75556C13.9866 6.85424 13.5965 7.05033 13.2673 7.32794C12.9381 7.60554 12.6789 7.95684 12.5109 8.35334C12.3428 8.74984 12.2705 9.18037 12.3 9.61001C12.1242 11.4797 12.3353 13.3655 12.92 15.15C12.9107 15.3451 12.8369 15.5315 12.71 15.68C11.9189 16.3017 11.2795 17.095 10.84 18C10.7035 18.248 10.6448 18.5313 10.6716 18.8131C10.6983 19.0949 10.8093 19.3621 10.99 19.58C10.27 20.32 9.21999 20.58 8.51999 21.37C8.05999 21.87 7.93999 22.66 7.18999 22.91C5.44999 23 3.67999 23.39 1.99999 22.61Z" fill="#CBEEDB"/>
<path d="M30.33 26.8C29.0002 28.5841 27.3128 30.0713 25.3757 31.1664C23.4386 32.2615 21.2944 32.9405 19.08 33.16C16.6366 33.4374 14.1621 33.1588 11.8417 32.3449C9.52117 31.531 7.41476 30.2029 5.68 28.46C5.21057 27.9471 4.7857 27.3951 4.41 26.81C5.77 26.08 7.21 26.47 8.63 26.53C9.17765 26.6748 9.74412 26.7355 10.31 26.71C14.94 26.71 19.57 26.71 24.2 26.71C25.72 26.71 27.2 26.27 28.76 26.41C29.28 26.45 29.87 26.36 30.33 26.8Z" fill="#CBEEDB"/>
<path d="M2 22.61H7.53C7.75842 22.4445 8.01771 22.3265 8.29253 22.263C8.56734 22.1994 8.85212 22.1916 9.13 22.24C10.24 22.24 11.35 22.19 12.45 22.24C14.5792 22.5931 16.7483 22.6369 18.89 22.37C19.0433 22.3224 19.2006 22.2889 19.36 22.27C21.68 22.12 24 22.27 26.36 22.2C26.8451 22.1796 27.3232 22.3203 27.72 22.6H32.72C33.05 22.76 33.64 22.46 33.72 22.95C33.8 23.44 33.18 23.36 32.87 23.52C32.56 23.68 32.25 23.8 31.94 23.93C29.94 25.06 27.63 25.19 25.41 25.59C20.25 25.69 15.09 25.65 9.94 25.59H9.47C7.73 25.27 5.97 25.01 4.26 24.59C3.62361 24.4605 3.02923 24.1754 2.53 23.76L1.82 23.47C1.58 23.39 1.25 23.34 1.29 23.04C1.33 22.74 1.74 22.71 2 22.61Z" fill="#016A2F"/>
<path d="M30.33 26.8C23.53 27.15 16.72 27.1 9.92001 27.07C9.46001 27.07 8.92 27.23 8.55 26.82C9.09 26.28 9.8 26.51 10.43 26.42C14.21 26.42 18 26.42 21.78 26.42C22.4418 26.513 23.1154 26.4725 23.7613 26.3007C24.4071 26.129 25.0119 25.8295 25.54 25.42C26.81 25.42 28.08 25.42 29.34 25.42C30.0884 25.3703 30.829 25.5982 31.42 26.06C31.61 26.06 31.89 26 31.98 26.25C32.07 26.5 31.84 26.52 31.67 26.56C31.23 26.63 30.68 26.44 30.33 26.8Z" fill="#99DFB9"/>
<path d="M10.47 26.79H8.55001H4.37001C3.82001 26.36 3.03001 26.79 2.32001 26.17L3.32001 25.98C3.90519 25.5317 4.63494 25.3146 5.37001 25.37C6.70001 25.37 8.03001 25.37 9.37001 25.29C9.43247 25.2751 9.49755 25.2751 9.56001 25.29C9.81572 25.4544 10.0306 25.675 10.1883 25.9349C10.346 26.1948 10.4423 26.4873 10.47 26.79Z" fill="#99DFB8"/>
<path d="M9.32 25.31C8.35785 25.7161 7.30914 25.8743 6.27 25.77C5.26416 25.7044 4.2541 25.7819 3.27 26C3.52 25.07 2.52 24.56 2.5 23.72L9.32 25.31Z" fill="#C7ECD8"/>
<path d="M31.42 26C30.2245 25.7455 28.9986 25.6647 27.78 25.76C27.0403 25.7863 26.3011 25.6952 25.59 25.49C25.52 25.42 25.5 25.36 25.59 25.31C25.68 25.26 25.65 25.24 25.68 25.24L31.98 23.94C31.98 24.69 30.97 25.17 31.42 26Z" fill="#C7ECD8"/>
<path d="M12.77 15.27C11.6 13.27 11.9 11.04 12.03 8.89C12.13 7.19 13.98 6.08 15.83 6.39C18.9895 6.83552 21.9706 8.12401 24.46 10.12C26.03 11.43 27.41 13.95 26.69 15.72C26.2309 16.6579 25.4848 17.4251 24.56 17.91C23.5 18.91 22.17 18.75 20.88 18.78C18.5226 18.7836 16.2116 18.1253 14.21 16.88C13.5399 16.5496 13.0239 15.9726 12.77 15.27V15.27Z" fill="#FEFEFE"/>
<path d="M25.08 20V20.86C24.5539 21.1631 23.936 21.2661 23.34 21.15C21.7802 21.0733 20.252 21.6079 19.08 22.64L18.98 22.73C17.34 22.81 15.69 22.73 14.04 22.73C13.28 22.73 13.04 22.53 13.28 21.73C13.81 20.22 13.62 19.95 12.02 19.81C11.6293 19.8432 11.2412 19.721 10.94 19.47C10.38 19.47 10.04 19.34 10.26 18.62C10.6075 17.3554 11.3946 16.2562 12.48 15.52C14.4463 17.91 17.2154 19.5024 20.27 20C21.4325 20.2251 22.6275 20.2251 23.79 20C24.2082 19.8575 24.6618 19.8575 25.08 20Z" fill="#FCF3D8"/>
<path d="M25.08 20C23.4879 20.6234 21.7434 20.7455 20.08 20.35C17.8121 19.9213 15.6815 18.9503 13.87 17.52C13.5146 17.2974 13.2075 17.0057 12.967 16.6621C12.7265 16.3186 12.5575 15.9302 12.47 15.52L12.75 15.25C14.3061 16.6934 16.2173 17.6982 18.2885 18.162C20.3597 18.6258 22.5169 18.532 24.54 17.89C24.8435 18.5558 25.0263 19.2702 25.08 20V20Z" fill="#F8D469"/>
<path d="M19.09 22.62C19.66 20.97 21.19 21.03 22.5 20.82C23.3615 20.74 24.2285 20.74 25.09 20.82C26.09 21.26 27.33 21.25 27.67 22.6L19.09 22.62Z" fill="#F08376"/>
<path d="M10.34 14.77C10.3306 15.7811 10.036 16.769 9.49001 17.62C9.36249 17.8513 9.17127 18.0411 8.93907 18.167C8.70686 18.2928 8.44341 18.3494 8.18001 18.33C7.92183 18.2901 7.68165 18.1734 7.49079 17.995C7.29992 17.8166 7.16723 17.5849 7.11001 17.33C6.89127 16.6871 6.80854 16.0058 6.86707 15.3293C6.9256 14.6527 7.12411 13.9958 7.45001 13.4C7.75001 12.81 8.19001 12.25 8.97001 12.4C9.75001 12.55 9.97001 13.12 10.17 13.79C10.26 14.12 10.3 14.51 10.34 14.77Z" fill="#0AB355"/>
<path d="M10.95 19.49H11.6C12.44 19.49 13.32 19.36 13.85 20.19C14.38 21.02 13.75 21.75 13.12 22.74H19C16.8183 23.0671 14.597 23.0231 12.43 22.61C12.4079 22.4401 12.4431 22.2676 12.53 22.12C12.81 21.63 13.17 21.12 12.72 20.59C12.27 20.06 11.62 20.33 11.04 20.49C9.95 20.79 9.54 21.68 9.17 22.61H7.53C7.87 20.71 9.43 20.12 10.95 19.49Z" fill="#13B65B"/>
<path d="M25.68 25.25C25.6656 25.3327 25.6656 25.4173 25.68 25.5C25.4785 25.9554 25.1315 26.331 24.6936 26.5681C24.2557 26.8051 23.7515 26.8902 23.26 26.81C19.03 26.74 14.79 26.81 10.56 26.81C10.0658 26.4382 9.71313 25.9091 9.56 25.31L25.68 25.25Z" fill="#028E40"/>
<path d="M9.17 22.58C9.17508 22.1629 9.27568 21.7525 9.46407 21.3804C9.65246 21.0082 9.92362 20.6842 10.2567 20.4331C10.5899 20.1821 10.9761 20.0107 11.3858 19.9321C11.7954 19.8536 12.2176 19.87 12.62 19.98C13.55 20.31 13.48 20.98 13.17 21.69C12.9664 22.02 12.7173 22.3197 12.43 22.58C11.3485 22.7301 10.2515 22.7301 9.17 22.58Z" fill="#CAEEDA"/>
<path d="M14.36 10.8C14.3397 10.5086 14.3776 10.216 14.4716 9.93939C14.5655 9.66278 14.7137 9.40766 14.9073 9.1889C15.1009 8.97014 15.3362 8.79213 15.5993 8.66527C15.8625 8.53841 16.1483 8.46523 16.44 8.45C17.2817 8.30927 18.1456 8.39643 18.9422 8.7024C19.7388 9.00838 20.439 9.52203 20.97 10.19C21.1913 10.4001 21.3662 10.6541 21.4836 10.9357C21.6009 11.2174 21.6582 11.5204 21.6516 11.8255C21.645 12.1305 21.5747 12.4308 21.4453 12.7071C21.3159 12.9835 21.1301 13.2297 20.9 13.43C20.3231 13.818 19.66 14.0589 18.9685 14.1316C18.2771 14.2044 17.5784 14.1068 16.9333 13.8474C16.2883 13.588 15.7166 13.1747 15.268 12.6435C14.8194 12.1123 14.5077 11.4794 14.36 10.8V10.8Z" fill="#F29D56"/>
<path d="M14.36 10.8C14.6063 11.4104 14.9733 11.9647 15.439 12.4299C15.9047 12.895 16.4595 13.2614 17.0702 13.507C17.6809 13.7525 18.3349 13.8723 18.993 13.8591C19.651 13.8459 20.2997 13.6999 20.9 13.43C20.62 14.43 19.71 14.43 18.9 14.64C18.343 14.7259 17.774 14.6912 17.2315 14.5384C16.689 14.3856 16.1855 14.1182 15.7552 13.7542C15.3249 13.3903 14.9776 12.9382 14.737 12.4285C14.4963 11.9189 14.3677 11.3636 14.36 10.8V10.8Z" fill="#FADD8F"/>
<path d="M7.45999 15.19C7.45999 14 8.11999 12.85 8.81999 12.97C9.69999 13.12 9.81999 13.89 9.81999 14.59C9.88999 15.76 9.17999 16.85 8.43999 16.81C7.69999 16.77 7.46999 16.15 7.45999 15.19Z" fill="#C5ECD7"/>
<path d="M18.92 11.34C18.1444 11.2442 17.4229 10.8923 16.87 10.34C16.58 10.06 16.33 9.73001 16.5 9.34001C16.5934 9.1409 16.7498 8.97813 16.945 8.87689C17.1403 8.77566 17.3634 8.74161 17.58 8.78002C18.3668 8.81007 19.1235 9.09032 19.74 9.58002C20.15 9.92002 20.54 10.31 20.3 10.91C20.06 11.51 19.53 11.32 18.92 11.34Z" fill="#F6C743"/>
</svg>
