<svg width="35" height="35" viewBox="0 0 35 35" fill="none" xmlns="http://www.w3.org/2000/svg">
<path d="M7.67999 18.59C5.59999 18.05 3.60998 17.75 0.96998 21.12C0.314165 18.6197 0.418615 15.9807 1.26998 13.54C2.30189 9.94435 4.54275 6.81482 7.61433 4.67965C10.6859 2.54449 14.4001 1.53445 18.13 1.82002C21.4629 2.01325 24.652 3.24421 27.2503 5.34048C29.8487 7.43675 31.7263 10.2933 32.62 13.51C32.32 13.82 32.06 13.51 31.8 13.44C31.2143 13.1361 30.5459 13.0303 29.895 13.1384C29.2441 13.2466 28.6458 13.563 28.19 14.04C27.61 14.63 27.19 14.59 26.51 14.04C25.9663 13.4592 25.2141 13.1182 24.419 13.092C23.6239 13.0657 22.8508 13.3564 22.27 13.9C21.6517 14.4598 21.2425 15.2134 21.1098 16.0369C20.9771 16.8603 21.1288 17.7044 21.54 18.43C21.7261 18.7763 21.9582 19.0959 22.23 19.38C23.64 20.75 24.88 22.26 26.23 23.68C27.23 24.76 27.39 24.76 28.41 23.68C29.75 22.31 30.92 20.78 32.35 19.49C32.65 19.22 32.81 18.71 33.35 18.81C32.87 25.04 30.03 29.76 24.44 32.72C23.37 32.65 23.72 31.67 23.44 31.12C23.14 29.93 22.87 28.73 22.67 27.52C22.18 25.67 21.99 23.73 21.33 21.92C21.082 21.0055 20.5448 20.1958 19.7986 19.6118C19.0524 19.0278 18.1373 18.7009 17.19 18.68C16.8668 18.6193 16.5636 18.4799 16.3072 18.2741C16.0508 18.0682 15.8491 17.8024 15.72 17.5C15.72 16.5 16.62 16.01 16.98 15.21C17.2742 14.6481 17.3827 14.0075 17.29 13.38C17.29 12.82 17.29 12.27 17.29 11.72C17.29 11.17 17.29 10.87 17.29 10.44C17.2565 9.88094 17.2935 9.31987 17.4 8.77002C17.488 8.51924 17.6438 8.29773 17.85 8.13002C18.0327 7.96751 18.1647 7.7557 18.23 7.52002C18.35 6.31002 17.39 6.22001 16.62 6.09001C15.1525 5.88912 13.6587 6.02244 12.25 6.48001C11.58 6.67001 10.93 6.90001 10.25 7.14001C9.96374 7.1999 9.6935 7.32005 9.45728 7.49248C9.22107 7.6649 9.02427 7.88563 8.87998 8.14001C8.77541 8.36062 8.68522 8.58777 8.60998 8.82002C8.51825 9.90077 8.49155 10.9861 8.52999 12.07C8.50816 12.5101 8.60302 12.9481 8.80497 13.3397C9.00692 13.7313 9.30879 14.0626 9.67999 14.3C9.91009 14.7175 10.0535 15.1772 10.1016 15.6514C10.1497 16.1257 10.1016 16.6048 9.95999 17.06C9.41933 17.8385 8.60529 18.3847 7.67999 18.59V18.59Z" fill="#C5EDD6"/>
<path d="M33.34 18.86C31.59 20.75 29.82 22.61 28.1 24.52C27.51 25.18 27.1 25.16 26.54 24.52C24.99 22.8 23.36 21.15 21.82 19.43C21.2556 18.8163 20.8838 18.0505 20.7504 17.2275C20.6171 16.4045 20.7282 15.5605 21.07 14.8C21.4072 14.1364 21.9371 13.5902 22.5903 13.2333C23.2435 12.8763 23.9894 12.7253 24.73 12.8C25.88 12.87 26.53 14.2 27.36 14.19C28.19 14.18 28.77 12.91 29.87 12.81C30.8333 12.7208 31.797 12.9759 32.59 13.53C33.311 14.1953 33.7796 15.0896 33.9163 16.0611C34.053 17.0326 33.8494 18.0215 33.34 18.86V18.86Z" fill="#ED6352"/>
<path d="M23.68 31.17C24.18 31.58 23.68 32.49 24.46 32.77C23.86 33.05 23.36 33.57 22.63 33.54C21.0382 33.44 19.4418 33.44 17.85 33.54C16.2193 33.7953 14.5514 33.6652 12.98 33.16C12.47 32.7 12.61 32.16 12.71 31.57C12.86 30.73 12.49 30.5 11.71 30.5C9.92999 30.5 8.14999 30.73 6.35999 30.64C5.37904 29.9635 4.57069 29.066 4 28.02C4 27.36 4.75 27.38 5 26.94C5.6 26.84 5.67999 27.38 5.92999 27.69C6.23934 28.1696 6.68512 28.5458 7.20999 28.77C7.52843 28.8809 7.86874 28.9143 8.20267 28.8673C8.53659 28.8204 8.8545 28.6944 9.12999 28.5C9.59392 27.9773 9.89616 27.3311 10 26.64C10 26.31 10.06 25.93 10.52 25.86C10.97 26.86 11.68 26.86 12.52 26.36C13.52 26.91 13.39 28.03 13.87 28.84C13.88 28.9698 13.88 29.1002 13.87 29.23C13.76 31.12 13.78 30.92 15.69 31.04C18.31 31.21 20.99 30.49 23.68 31.17Z" fill="#EDF9F2"/>
<path d="M6.32001 30.65C8.32001 29.94 10.47 30.26 12.55 30.15C13.3 30.15 13.18 30.77 13.12 31.21C12.9653 31.7977 12.8847 32.4023 12.88 33.01C13.1 33.75 12.82 34.01 12.09 33.8C9.94829 33.212 7.97283 32.1335 6.32001 30.65V30.65Z" fill="#E0F5E9"/>
<path d="M7.10001 29.07C5.88001 28.85 5.61001 27.73 5.04001 26.9C4.76891 26.685 4.55822 26.4034 4.42852 26.0826C4.29881 25.7619 4.25453 25.413 4.30001 25.07C4.28836 24.1316 4.33178 23.1933 4.43001 22.26C4.51024 21.766 4.72003 21.3021 5.038 20.9156C5.35596 20.5291 5.77073 20.2339 6.24001 20.06C6.94001 19.8 7.17001 19.06 7.65001 18.59C8.24208 18.0052 8.94615 17.546 9.72 17.24C9.82108 17.3331 9.89005 17.4558 9.917 17.5906C9.94395 17.7253 9.9275 17.8652 9.87001 17.99C9.50001 18.6 8.49001 18.67 8.43001 19.41C8.37001 20.15 9.33001 20.27 9.65001 20.84C10.54 22.41 11.19 24.02 10.49 25.84C10.2 26.84 10.17 28.03 9.27001 28.84C9.11256 28.7653 8.98468 28.64 8.90674 28.4841C8.82881 28.3282 8.80532 28.1508 8.84001 27.98C9.30417 27.1136 9.49587 26.1272 9.39002 25.15C9.47826 24.2337 9.38306 23.309 9.11 22.43C8.74 21.54 8.22 20.79 7.11 20.88C6.60443 20.9451 6.1428 21.2007 5.8194 21.5948C5.496 21.9888 5.33526 22.4914 5.37001 23C5.31619 23.6549 5.37366 24.3142 5.54001 24.95C5.85001 26.1 6.05001 27.3 7.07001 28.1C7.16491 28.2428 7.21801 28.4093 7.22332 28.5807C7.22862 28.7521 7.1859 28.9216 7.10001 29.07V29.07Z" fill="#58CA8B"/>
<path d="M32.44 0.729982C32.8397 0.730482 33.2301 0.850751 33.5608 1.07526C33.8915 1.29976 34.1474 1.61821 34.2954 1.98952C34.4434 2.36083 34.4767 2.76798 34.3911 3.15842C34.3055 3.54886 34.1048 3.90467 33.815 4.17998C33.5252 4.45528 33.1596 4.63744 32.7653 4.70294C32.3709 4.76845 31.9661 4.71429 31.6028 4.54747C31.2396 4.38065 30.9346 4.10881 30.7274 3.76703C30.5201 3.42525 30.42 3.02921 30.44 2.62999C30.4657 2.11708 30.6877 1.63369 31.06 1.27999C31.4323 0.926275 31.9264 0.72934 32.44 0.729982Z" fill="#F17575"/>
<path d="M12.09 33.8C12.1956 33.8074 12.3017 33.7921 12.4009 33.755C12.5001 33.7179 12.5902 33.66 12.6651 33.5851C12.74 33.5102 12.7979 33.4201 12.835 33.3209C12.8721 33.2217 12.8874 33.1157 12.88 33.01C15.3 33.67 17.76 32.87 20.2 33.21C20.99 33.33 21.88 32.69 22.6 33.54C19.2463 34.9091 15.5072 35.0016 12.09 33.8V33.8Z" fill="#E6F7ED"/>
<path d="M4.42999 22.26C4.35683 23.8306 4.56337 25.4017 5.03999 26.9C5.20999 27.78 4.33998 27.67 3.95998 28.03C3.46464 27.6164 3.06826 27.097 2.79998 26.51C1.96998 25.24 1.99999 25.13 3.44999 24.87C4.04999 24.77 4.19999 24.42 4.22999 23.87C4.25999 23.32 4.03999 22.76 4.42999 22.26Z" fill="#F3FBF7"/>
<path d="M17.08 18.58C18.27 18.18 19.68 18.85 20.86 20.33C21.4595 21.1798 21.8595 22.1541 22.03 23.18C22.37 24.6 22.59 26.06 22.86 27.49C23.24 28.49 22.86 28.89 21.86 28.95C21.1647 28.9835 20.4679 28.9466 19.78 28.84C19.36 28.79 19.02 28.62 19.07 28.1C19.3139 27.6014 19.407 27.0425 19.3377 26.4918C19.2684 25.9411 19.0398 25.4226 18.68 25C18.591 24.3373 18.5642 23.6677 18.6 23C18.616 21.8571 18.2655 20.7392 17.6 19.81C17.35 19.48 16.91 19.14 17.08 18.58Z" fill="#FCFDFD"/>
<path d="M19.41 28C19.41 28.08 19.35 28.22 19.41 28.25C20.26 28.91 21.26 28.65 22.2 28.66C22.92 28.66 22.92 28.08 22.89 27.54C23.2573 28.742 23.5216 29.9731 23.68 31.22C23.15 31.82 22.44 31.34 21.88 31.35C20.29 31.35 18.7 31.55 17.14 31.57C16.21 31.57 15.14 31.57 14.14 31.5C13.59 31.5 13.39 31.23 13.38 30.69C13.3414 30.0414 13.4193 29.3911 13.61 28.77C13.5982 28.7112 13.6043 28.6503 13.6275 28.5951C13.6507 28.5398 13.6899 28.4928 13.74 28.46C14.4851 28.1155 15.3278 28.0447 16.12 28.26C16.67 28.45 17.12 28.15 17.58 27.96C18.1893 27.8966 18.8041 27.91 19.41 28Z" fill="#F6FCF9"/>
<path d="M9.73 18C9.73 17.74 9.73 17.48 9.73 17.22C9.87893 16.2954 9.82087 15.3494 9.56 14.45C9.63 14.01 8.87 13.66 9.41 13.17C10.74 13.05 10.41 14.17 10.75 14.87C11.3168 15.7352 12.0596 16.4712 12.93 17.03C13.66 17.33 14.49 16.98 15.21 17.37C15.2897 17.4344 15.3549 17.5149 15.4014 17.6062C15.448 17.6975 15.4747 17.7976 15.48 17.9C15.4797 18.0322 15.4594 18.1637 15.42 18.29C13.27 21.41 13.23 21.41 10.42 19.09C10.1256 18.9061 9.88154 18.6518 9.71 18.35C9.68226 18.295 9.66951 18.2337 9.67303 18.1723C9.67654 18.1108 9.69619 18.0514 9.73 18Z" fill="#D78D59"/>
<path d="M8.39999 8.57003L8.62 8.06002C8.82844 7.8357 9.08562 7.66224 9.37169 7.55301C9.65776 7.44379 9.96508 7.4017 10.27 7.43001C12.49 7.43001 14.71 7.43001 16.92 7.43001C17.44 7.43001 18.22 7.29003 18.13 8.27003L17.69 8.66002C17.0622 9.17213 16.28 9.45751 15.47 9.47002C14.5152 9.65982 13.5434 9.7503 12.57 9.74003L9.75 9.42002C9.21 9.38002 8.47999 9.43003 8.39999 8.57003Z" fill="#2C5E43"/>
<path d="M8.39999 8.57001C9.69999 9.57001 11.3 8.94 12.69 9.42C12.27 10.01 11.49 10.32 11.47 11.24C11.47 11.68 10.95 11.74 10.53 11.58C10.11 11.42 9.94 11.05 9.53 11.15C9.08 11.73 9.36999 12.39 9.32999 13.02V13.37C9.72999 13.67 10.05 13.98 9.56999 14.47C9.14723 14.3527 8.78228 14.0841 8.54446 13.7154C8.30665 13.3467 8.21254 12.9035 8.28 12.47C8.17441 11.1696 8.21466 9.86146 8.39999 8.57001V8.57001Z" fill="#395A47"/>
<path d="M9.92999 7.00001C12.2188 5.83844 14.8263 5.46242 17.35 5.93C18.46 6.16 18.88 6.8 18.44 7.93C18.2615 7.73834 18.0387 7.59344 17.7911 7.50801C17.5435 7.42257 17.2787 7.39922 17.02 7.44001C15.19 7.44001 13.35 7.44001 11.52 7.44001C10.96 7.41001 10.37 7.49001 9.92999 7.00001Z" fill="#217848"/>
<path d="M9.92999 7C12.4 7 14.87 7 17.34 7C18 7 18.46 7.1 18.44 7.88C18.44 8.08 18.35 8.23 18.13 8.27C18.1276 8.20423 18.1117 8.13965 18.0833 8.08028C18.0549 8.0209 18.0146 7.96799 17.9649 7.92485C17.9152 7.88171 17.8572 7.84926 17.7944 7.8295C17.7316 7.80974 17.6654 7.8031 17.6 7.81C14.81 7.81 12.03 7.81 9.23999 7.81C9.02429 7.84448 8.81518 7.91193 8.62 8.00999C8.71965 7.73446 8.89583 7.49308 9.12787 7.31418C9.35991 7.13528 9.63818 7.02629 9.92999 7Z" fill="#256B45"/>
<path d="M15.26 18.11L15.2 17.52C15.2709 17.4588 15.3614 17.4251 15.455 17.4251C15.5486 17.4251 15.6392 17.4588 15.71 17.52L17.08 18.62C17.8852 19.4924 18.469 20.5455 18.7822 21.6906C19.0955 22.8356 19.129 24.0392 18.88 25.2C18.7752 25.2888 18.6423 25.3375 18.505 25.3375C18.3677 25.3375 18.2348 25.2888 18.13 25.2C18.0039 24.9715 17.9649 24.7051 18.02 24.45C18.1845 23.355 18.0512 22.2359 17.6342 21.2101C17.2172 20.1843 16.5318 19.2897 15.65 18.62C15.4953 18.4704 15.3639 18.2985 15.26 18.11Z" fill="#5BCB8D"/>
<path d="M15.5 9.17L17.69 8.67999L17.63 10.44C17.3346 10.5799 17.0138 10.6583 16.6872 10.6703C16.3606 10.6823 16.0349 10.6278 15.73 10.51C15.43 10.1 15.19 9.68 15.5 9.17Z" fill="#BB5844"/>
<path d="M15.8 10.43H17.68V11.75C17.4472 11.9305 17.1693 12.0437 16.8766 12.0772C16.5839 12.1107 16.2876 12.0632 16.02 11.94C15.8877 11.8713 15.7737 11.7721 15.6873 11.6506C15.6009 11.5291 15.5446 11.3889 15.5232 11.2414C15.5017 11.0939 15.5156 10.9434 15.5637 10.8023C15.6118 10.6612 15.6928 10.5336 15.8 10.43V10.43Z" fill="#CA6D4D"/>
<path d="M15.68 17.48H15.17C14.31 17.37 13.41 17.76 12.6 17.22C12.6786 17.1133 12.7834 17.0287 12.9043 16.9744C13.0252 16.9201 13.158 16.8979 13.29 16.91C13.5646 16.9668 13.8477 16.9685 14.123 16.9151C14.3982 16.8617 14.6602 16.7542 14.8936 16.5989C15.127 16.4436 15.3274 16.2435 15.4829 16.0103C15.6385 15.777 15.7463 15.5152 15.8 15.24C16.0069 15.1151 16.25 15.0639 16.4897 15.0948C16.7293 15.1257 16.9515 15.2368 17.12 15.41C16.7293 16.158 16.2454 16.8535 15.68 17.48V17.48Z" fill="#E8B76B"/>
<path d="M17.15 15.45H15.78C15.21 14.59 15.78 14.26 16.46 14.01L16.95 13.72C17.16 13.61 17.37 13.45 17.63 13.62C17.68 14.26 17.84 15 17.15 15.45Z" fill="#E2A361"/>
<path d="M17.68 13.59L17.13 13.85C16.5562 13.4859 16.1307 12.9293 15.93 12.28C15.9082 12.1893 15.9087 12.0946 15.9313 12.0041C15.954 11.9136 15.9981 11.8298 16.06 11.76H17.68V13.59Z" fill="#D58557"/>
<path d="M27.41 21.68C26.62 21.82 26.24 21.58 26.33 20.79C26.4 20.18 26.24 19.79 25.5 19.85C24.76 19.91 24.58 19.62 24.58 18.95C24.58 18.28 24.76 17.95 25.46 18.04C26.16 18.13 26.46 17.79 26.33 17.13C26.2 16.47 26.53 16.13 27.33 16.13C28.13 16.13 28.41 16.31 28.33 17.13C28.25 17.75 28.42 18.13 29.17 18.08C29.92 18.03 30.1 18.25 30.08 18.95C30.06 19.65 29.94 19.95 29.21 19.89C28.48 19.83 28.26 20.12 28.32 20.79C28.38 21.46 28.18 21.91 27.41 21.68Z" fill="#FEFCFB"/>
<path d="M13.68 28.55C13.665 28.5573 13.6517 28.5677 13.641 28.5804C13.6302 28.5932 13.6222 28.608 13.6175 28.624C13.6128 28.64 13.6115 28.6568 13.6136 28.6733C13.6158 28.6898 13.6214 28.7057 13.63 28.72C12.87 28.12 13 27.05 12.4 26.37C11.8077 25.6302 11.4213 24.7471 11.28 23.81C11.51 22.65 11.89 21.1 12.96 21.05C14.03 21 14.4 22.6 14.76 23.68C14.45 25.31 14.45 27 13.68 28.55Z" fill="#038F41"/>
<path d="M11.52 23.83C11.8831 24.6509 12.1774 25.5005 12.4 26.37C12.28 27.17 11.59 27.07 11.11 27.05C10.39 27.05 10.56 26.34 10.49 25.86C10.4916 24.7265 10.3675 23.5962 10.12 22.49C10.0507 21.9888 9.85571 21.5133 9.55324 21.1076C9.25076 20.702 8.85061 20.3794 8.39 20.17C7.51 19.81 7.56999 19.48 8.17999 18.94C8.59527 18.488 9.1343 18.1681 9.73 18.02V18.28C10.37 20.12 11.41 21.83 11.52 23.83Z" fill="#F6FCF9"/>
<path d="M8.93999 28.07L9.26999 28.84C8.94977 29.0413 8.58777 29.1666 8.21165 29.2065C7.83554 29.2464 7.45529 29.1997 7.09999 29.07C7.03609 28.9536 7.00259 28.8229 7.00259 28.69C7.00259 28.5572 7.03609 28.4265 7.09999 28.31C7.3193 28.0445 7.63119 27.872 7.9727 27.8275C8.31421 27.7829 8.6599 27.8696 8.93999 28.07V28.07Z" fill="#197944"/>
<path d="M5.31002 25.14C4.94807 24.3381 4.84327 23.4438 5.01002 22.58C5.03071 22.0495 5.24607 21.5451 5.61498 21.1633C5.9839 20.7815 6.48052 20.5489 7.01002 20.51C7.49447 20.4466 7.98582 20.5549 8.39869 20.8162C8.81156 21.0774 9.11985 21.4751 9.27001 21.94C9.70692 22.9463 9.86579 24.0514 9.73002 25.14C9.03167 25.4393 8.2798 25.5936 7.52001 25.5936C6.76023 25.5936 6.00837 25.4393 5.31002 25.14V25.14Z" fill="#FAFDFB"/>
<path d="M5.31 25.14H9.75C9.75 26.2 9.90999 27.29 8.93999 28.07C8.36999 28.46 7.68999 27.99 7.10999 28.31C5.67999 27.74 5.59 26.38 5.31 25.14Z" fill="#F3FBF7"/>
<path d="M18.13 25.14H18.88C19.118 25.2705 19.3242 25.4521 19.4838 25.6716C19.6434 25.8912 19.7524 26.1433 19.8031 26.41C19.8537 26.6767 19.8447 26.9512 19.7768 27.214C19.7088 27.4768 19.5836 27.7213 19.41 27.93C19.1446 28.1059 18.8376 28.2087 18.5198 28.228C18.202 28.2473 17.8847 28.1825 17.6 28.04C17.4149 28.0519 17.2295 28.0207 17.0585 27.9489C16.8874 27.877 16.7354 27.7665 16.6143 27.626C16.4931 27.4855 16.4062 27.3188 16.3604 27.1391C16.3145 26.9593 16.311 26.7714 16.35 26.59C16.3699 26.3772 16.4321 26.1706 16.5327 25.9821C16.6333 25.7936 16.7705 25.627 16.9361 25.492C17.1018 25.357 17.2927 25.2564 17.4977 25.196C17.7027 25.1355 17.9176 25.1165 18.13 25.14Z" fill="#04B051"/>
<path d="M18.13 25.14L17.7 25.4C16.21 26.4 16.19 26.91 17.6 28.06C17.37 28.46 16.95 28.82 16.6 28.63C15.6 28.14 14.67 28.63 13.71 28.55C13.862 26.8657 14.136 25.1946 14.53 23.55C14.3597 21.7539 14.6096 19.9428 15.26 18.26V18.09C16.5023 18.7279 17.4748 19.7898 18.0014 21.0832C18.5279 22.3766 18.5735 23.8158 18.13 25.14V25.14Z" fill="#FCFDFD"/>
<path d="M16.07 12.23L17.07 13.85L16.8 14.11C16.5223 14.1463 16.2547 14.2375 16.0126 14.3782C15.7705 14.519 15.5589 14.7066 15.39 14.93C14.97 15.55 13.94 15.38 13.2 15.33C12.3 15.26 11.4 15.28 10.51 15.16C10.1 14.91 10.24 14.48 10.22 14.16C10.22 13.55 9.85001 13.34 9.29001 13.41H9.19001C9.13503 13.3326 9.0999 13.2429 9.0877 13.1487C9.07549 13.0546 9.0866 12.9588 9.12001 12.87C9.48001 12.33 10.05 12.42 10.54 12.5C12.3811 12.8129 14.2682 12.7207 16.07 12.23V12.23Z" fill="#FBEBBE"/>
<path d="M15.23 18.28C15.1469 20.0618 14.9026 21.8323 14.5 23.57L13.01 20.82C12.37 21.7422 11.868 22.7528 11.52 23.82C10.96 21.96 9.77001 20.3 9.76001 18.27C10.4645 18.7579 11.1329 19.296 11.76 19.88C12.68 20.82 13.32 20.61 14 19.63C14.3772 19.1512 14.7882 18.7 15.23 18.28V18.28Z" fill="#B1E6C8"/>
<path d="M10.52 15.16C11.45 14.48 12.43 14.91 13.38 15.05C14.67 15.24 15.58 14.11 16.81 14.11C16.28 14.4 15.48 14.48 15.81 15.42C15.75 17.27 15.75 17.27 13.95 17.27H12.68L10.52 15.16Z" fill="#FBE8B6"/>
<path d="M16.07 12.23C14.99 13.23 13.64 12.94 12.37 12.94C11.31 12.94 10.27 12.52 9.2 12.8C8.98521 12.1199 8.98521 11.3901 9.2 10.71C9.77 10.43 10.06 10.81 10.41 11.18C10.76 11.55 11.41 11.62 11.27 10.94C11.12 9.75999 11.86 9.60998 12.66 9.41998L15.47 9.16998L15.77 10.43C15.77 10.89 15.6 11.37 15.98 11.76L16.07 12.23Z" fill="#FBEEC7"/>
<path d="M9.23001 10.71C9.10004 11.4006 9.10004 12.1094 9.23001 12.8V13.33C9.01381 12.9272 8.90067 12.4772 8.90067 12.02C8.90067 11.5629 9.01381 11.1128 9.23001 10.71V10.71Z" fill="#3D6E50"/>
</svg>
