<svg width="15" height="15" viewBox="0 0 15 15" fill="none" xmlns="http://www.w3.org/2000/svg">
<path d="M0.369995 7.55003V3.09004C0.369995 1.76004 0.959988 0.980056 2.29999 0.950056C5.22999 0.880056 8.16 0.950056 11.09 0.950056C12.09 0.950056 12.91 1.30004 13 2.50004C13 2.77004 13.06 3.05005 13.34 3.16005C14.69 3.74005 14.75 4.92002 14.74 6.16002C14.74 8.16002 14.74 10.1 14.74 12.06C14.74 14.02 14.03 14.6601 12.22 14.7001C9.11999 14.7601 6.00999 14.7601 2.90999 14.7001C1.10999 14.7001 0.459988 13.87 0.409988 12.05V7.59007L0.369995 7.55003Z" fill="#9A9A9A"/>
<path d="M7.42001 4.06001C9.03001 4.06001 10.65 4.06001 12.27 4.06001C13.27 4.06001 13.73 4.41003 13.72 5.42003C13.72 7.70003 13.72 9.97334 13.72 12.24C13.72 13.24 13.34 13.7 12.33 13.69H2.89001C1.89001 13.69 1.42001 13.25 1.42001 12.27C1.42001 9.82003 1.42001 7.38001 1.42001 4.93001C1.42001 4.25001 1.61001 4.03 2.32001 4.05C4.01001 4.1 5.68001 4.06001 7.42001 4.06001Z" fill="#FEFEFE"/>
<path d="M6.87 3H2.56C2.13 3 1.56 3.06 1.56 2.44C1.56 1.82 2.05999 1.95001 2.43999 1.95001H10.93C11.44 1.95001 12.03 2.05999 11.98 2.64999C11.93 3.23999 11.28 2.99 10.89 3C9.57 3 8.22 3 6.87 3Z" fill="#FAFAFA"/>
<path d="M11.16 7.65C11.3249 7.62968 11.4923 7.64529 11.6505 7.69584C11.8088 7.74639 11.9542 7.83064 12.0768 7.94279C12.1994 8.05493 12.2963 8.19234 12.3607 8.3455C12.4251 8.49865 12.4556 8.66394 12.45 8.82999C12.4699 8.98359 12.4568 9.13967 12.4117 9.28782C12.3665 9.43597 12.2903 9.5728 12.1881 9.68918C12.0859 9.80557 11.9601 9.8988 11.819 9.96274C11.678 10.0267 11.5249 10.0598 11.37 10.06C11.2077 10.0913 11.0405 10.0859 10.8805 10.0443C10.7206 10.0028 10.5719 9.92599 10.4454 9.81962C10.3189 9.71324 10.2178 9.57993 10.1494 9.42948C10.081 9.27903 10.047 9.11524 10.05 8.94999C10.0256 8.78967 10.036 8.62595 10.0805 8.47001C10.125 8.31406 10.2025 8.16951 10.3078 8.04618C10.4131 7.92285 10.5437 7.82365 10.6908 7.75529C10.8378 7.68692 10.9978 7.65102 11.16 7.65V7.65Z" fill="#9B9B9B"/>
<path d="M11.68 8.86998C11.68 9.10998 11.51 9.26997 11.26 9.23997C11.2075 9.23584 11.1566 9.22022 11.1108 9.19426C11.065 9.1683 11.0254 9.13261 10.9949 9.08971C10.9644 9.0468 10.9437 8.99776 10.9342 8.94597C10.9247 8.89418 10.9267 8.8409 10.94 8.78996C10.9412 8.74745 10.9511 8.70568 10.9691 8.66716C10.9871 8.62864 11.0129 8.59422 11.0448 8.56609C11.0767 8.53795 11.114 8.51667 11.1545 8.50359C11.1949 8.4905 11.2377 8.48584 11.28 8.48997C11.3323 8.48403 11.3852 8.48963 11.4351 8.50633C11.4849 8.52304 11.5305 8.55043 11.5686 8.58665C11.6068 8.62288 11.6365 8.66704 11.6557 8.71599C11.675 8.76493 11.6833 8.81749 11.68 8.86998V8.86998Z" fill="#F8F8F8"/>
</svg>
