<svg width="16" height="16" viewBox="0 0 16 16" fill="none" xmlns="http://www.w3.org/2000/svg">
<path d="M8.04862 14.7801L8.04526 14.7801C7.1275 14.7704 6.22075 14.5788 5.37753 14.2163C4.53431 13.8539 3.77136 13.3278 3.13286 12.6684C2.49436 12.0091 1.99298 11.2297 1.65775 10.3753C1.32252 9.52087 1.16009 8.60843 1.17988 7.69082L0.679998 7.68004L1.17994 7.68746C1.20046 6.3044 1.63086 4.95853 2.41665 3.82019C3.20244 2.68186 4.30829 1.80224 5.59423 1.2927C6.88017 0.783164 8.28837 0.666605 9.64059 0.957775C10.9928 1.24894 12.2282 1.93477 13.1905 2.92842C14.1528 3.92206 14.7986 5.17884 15.0462 6.5397C15.2939 7.90056 15.1322 9.30433 14.5817 10.5733C14.0312 11.8422 13.1165 12.9192 11.9536 13.6681C10.7906 14.417 9.43162 14.804 8.04862 14.7801Z" fill="#FEFEFE" stroke="#9A9A9A"/>
<path d="M10.2902 7.97936L10.2901 7.97935L10.2883 7.98582C10.1555 8.46282 9.89673 8.89528 9.53923 9.23788C9.18174 9.58048 8.73866 9.82059 8.25644 9.93305L8.23465 9.93813L8.21341 9.94514C7.6056 10.1456 6.98646 10.4145 6.39189 10.6727C6.05634 10.8184 5.72861 10.9607 5.41517 11.0854L5.35425 11.1096L5.30164 11.1488C5.24152 11.1935 5.16766 11.2157 5.09295 11.2115C5.01818 11.2074 4.94725 11.1771 4.89248 11.1261C4.83774 11.0751 4.80259 11.0064 4.7932 10.9321C4.78383 10.8578 4.80078 10.7826 4.84115 10.7195L4.86772 10.678L4.88568 10.6321C5.3173 9.52811 5.76266 8.42435 6.21152 7.3119C6.30134 7.0893 6.3913 6.86635 6.48131 6.64298C6.53248 6.52601 6.60648 6.4204 6.69898 6.33236C6.79278 6.24308 6.90366 6.1737 7.02495 6.1284L7.0352 6.12457L7.04528 6.12029C8.36199 5.56169 9.67514 5.01455 11.0266 4.4878C11.2857 4.39356 11.3796 4.42621 11.3956 4.43505L11.3957 4.43511C11.4001 4.43754 11.425 4.4513 11.4573 4.51601C11.4851 4.57187 11.5154 4.66033 11.5372 4.79443C11.4382 5.03713 11.3285 5.29282 11.2145 5.55851C10.8927 6.30847 10.5368 7.13802 10.2902 7.97936Z" fill="#FDFEFD" stroke="#9A9A9A"/>
<path d="M8.16 8.74998C8.03219 8.77328 7.90074 8.76699 7.77575 8.73155C7.65076 8.69611 7.53555 8.63249 7.43899 8.54558C7.34242 8.45867 7.26706 8.35073 7.2187 8.23015C7.17034 8.10957 7.15026 7.97951 7.16 7.84996C7.14138 7.71862 7.1527 7.58483 7.19309 7.45848C7.23349 7.33213 7.30193 7.21651 7.39329 7.12034C7.48465 7.02417 7.59657 6.94994 7.72069 6.90312C7.8448 6.8563 7.97789 6.83809 8.11 6.84996C8.74 6.84996 9.11 7.10998 9.11 7.74998C9.11 8.38998 8.86 8.73998 8.16 8.74998Z" fill="#9A9A9A"/>
</svg>
