<svg width="15" height="16" viewBox="0 0 15 16" fill="none" xmlns="http://www.w3.org/2000/svg">
<path d="M7.26999 0.619986C8.84999 0.619986 10.42 0.619986 11.99 0.619986C13.78 0.619986 14.45 1.31998 14.46 3.07998C14.46 5.39998 14.46 7.72002 14.46 10.03C14.46 11.46 13.66 12.5 12.34 12.31C9.73 11.92 8.06 13.31 6.34 14.86C6 15.17 5.67999 15.69 5.12999 15.46C4.57999 15.23 4.76 14.64 4.75 14.18C4.75 12.38 4.75 12.38 2.93 12.37C0.729997 12.37 0.0499974 11.68 0.0399974 9.47997C0.0299974 7.27997 0.0399974 5.11 0.0399974 2.92C0.0399974 1.39 0.709999 0.669995 2.26 0.629995C3.81 0.589995 5.60999 0.619986 7.26999 0.619986Z" fill="#979797"/>
<path d="M5.90001 14.12C5.65001 11.32 5.65001 11.32 3.16001 11.32C1.10001 11.32 1.10002 11.32 1.09002 9.32004C1.08002 7.32004 1.09002 5.12002 1.09002 3.02002C1.09002 2.09002 1.45001 1.66003 2.41001 1.66003C5.64334 1.66003 8.88001 1.66003 12.12 1.66003C12.97 1.66003 13.43 1.99005 13.43 2.89005C13.43 5.33671 13.43 7.78669 13.43 10.24C13.43 11 13.13 11.47 12.35 11.33C9.68001 10.83 7.73001 12 5.90001 14.12Z" fill="#FEFEFE"/>
<path d="M10.53 5.52C11.14 5.52 11.53 5.73004 11.58 6.40004C11.6013 6.52756 11.5935 6.65819 11.5573 6.7823C11.5212 6.90641 11.4574 7.0208 11.371 7.1169C11.2845 7.21299 11.1774 7.28834 11.0578 7.33735C10.9382 7.38637 10.809 7.40781 10.68 7.40004C10.5492 7.42369 10.4147 7.41807 10.2863 7.38356C10.1579 7.34905 10.0387 7.28651 9.93738 7.20045C9.83603 7.1144 9.75498 7.00692 9.70011 6.88582C9.64523 6.76471 9.61788 6.63296 9.62 6.50001C9.59562 6.37214 9.60166 6.24029 9.63764 6.11519C9.67361 5.99008 9.73851 5.87522 9.82709 5.77983C9.91567 5.68444 10.0255 5.61122 10.1476 5.56608C10.2697 5.52095 10.4007 5.50515 10.53 5.52V5.52Z" fill="#9B9B9B"/>
<path d="M3.67999 7.43C3.27999 7.43 2.90999 7.17002 2.89999 6.51002C2.87965 6.37925 2.8894 6.24552 2.92852 6.11909C2.96764 5.99266 3.0351 5.87687 3.12574 5.78044C3.21639 5.68401 3.32784 5.60952 3.45161 5.56266C3.57538 5.51581 3.70821 5.4978 3.83999 5.51002C3.96928 5.48822 4.10184 5.49627 4.22755 5.53355C4.35325 5.57084 4.46878 5.63636 4.56527 5.72514C4.66177 5.81392 4.73668 5.92356 4.7843 6.04573C4.83191 6.1679 4.85096 6.29935 4.83999 6.43C4.89999 7 4.60999 7.42 3.67999 7.43Z" fill="#9B9B9B"/>
<path d="M8.20002 6.52005C8.20002 7.18005 7.83002 7.44002 7.20002 7.43002C6.57002 7.42002 6.28001 7.05002 6.30001 6.43002C6.32001 5.81002 6.67001 5.51002 7.30001 5.52002C7.93001 5.53002 8.22002 5.90005 8.20002 6.52005Z" fill="#989898"/>
</svg>
