<svg width="16" height="15" viewBox="0 0 16 15" fill="none" xmlns="http://www.w3.org/2000/svg">
<path d="M7.85999 0.920013C9.47999 0.920013 11.1 0.920013 12.71 0.920013C14.5 0.920013 15.07 1.53999 15.07 3.29999C15.07 6.35999 15.07 9.40997 15.07 12.47C15.07 14.02 14.5 14.64 12.95 14.67C10.46 14.73 7.95 14.72 5.48 14.67C3.71 14.67 3.25999 14.11 3.24999 12.36C3.24999 11.75 3.24999 11.13 3.24999 10.52C3.24999 9.40002 3.48999 8.28999 1.75999 8.17999C0.949995 8.12999 0.689993 7.24 0.679993 6.44C0.679993 5.35 0.679993 4.26001 0.679993 3.17001C0.679993 1.54001 1.38999 0.880005 3.00999 0.880005H7.85999V0.920013Z" fill="#9A9A9A"/>
<path d="M4.26001 7.54001C4.26001 5.88001 4.32001 4.22004 4.26001 2.54004C4.26001 1.92004 4.45001 1.90002 4.89001 1.90002H13.14C13.79 1.90002 14.08 2.21002 14.08 2.90002C14.08 6.16669 14.08 9.44 14.08 12.72C14.08 13.37 13.82 13.72 13.15 13.72C10.53 13.72 7.91001 13.72 5.29001 13.72C4.54001 13.72 4.29001 13.39 4.29001 12.72C4.29001 11.01 4.29001 9.31002 4.29001 7.61002L4.26001 7.54001Z" fill="#FEFEFE"/>
<path d="M3.22 4.94004V6.63004C3.22 7.05004 3.22 7.42001 2.62 7.41001C2.02 7.40001 1.76 7.30006 1.75 6.83006C1.75 5.44006 1.75 4.05005 1.75 2.67005C1.74877 2.58209 1.76689 2.49492 1.80309 2.41474C1.83929 2.33456 1.89267 2.26334 1.95946 2.20609C2.02625 2.14884 2.10482 2.10698 2.18959 2.08347C2.27436 2.05996 2.36326 2.05538 2.44999 2.07005C2.62785 2.07255 2.79787 2.14363 2.92457 2.26847C3.05127 2.39331 3.12486 2.56223 3.13 2.74003C3.2 3.47003 3.21 4.21004 3.25 4.94004H3.22Z" fill="#FAFAFA"/>
<path d="M9.16 8.35997C8.29 8.35997 7.41999 8.35997 6.55999 8.35997C6.25999 8.35997 5.92999 8.18998 5.92999 7.80998C5.92999 7.42998 6.25999 7.28 6.55999 7.27C8.24666 7.27 9.93666 7.27 11.63 7.27C11.7854 7.25506 11.9407 7.29924 12.0648 7.39378C12.189 7.48832 12.273 7.62627 12.3 7.78001C12.3 8.23001 11.98 8.39996 11.63 8.41996C10.81 8.41996 9.98 8.41996 9.16 8.41996V8.35997Z" fill="#A6A6A6"/>
<path d="M9.16999 5.57997H6.68C6.34 5.57997 5.93 5.57999 5.94 5.09999C5.94 4.72999 6.23999 4.57997 6.55999 4.57997C8.24999 4.57997 9.93999 4.57997 11.63 4.57997C11.7068 4.57166 11.7844 4.57932 11.8581 4.60246C11.9317 4.6256 11.9998 4.66375 12.058 4.71446C12.1163 4.76517 12.1634 4.82735 12.1964 4.89714C12.2294 4.96693 12.2477 5.0428 12.25 5.11998C12.25 5.62998 11.83 5.56999 11.49 5.56999L9.16999 5.57997Z" fill="#9E9E9E"/>
<path d="M7.85001 11.06C7.31001 10.85 6.07001 11.47 6.07001 10.6C6.07001 9.53997 7.30001 10.2 7.97001 10.05C8.40126 9.9899 8.83875 9.9899 9.27 10.05C9.62 10.05 10.02 10.05 10.01 10.55C10 11.05 9.61001 11.06 9.26001 11.07C8.91001 11.08 8.39001 11.06 7.85001 11.06Z" fill="#9F9F9F"/>
</svg>
