<svg width="33" height="33" viewBox="0 0 33 33" fill="none" xmlns="http://www.w3.org/2000/svg">
<path d="M15.94 32.32C7.33999 32.56 -0.010011 25.32 0.019989 16.32C0.0200286 13.1521 0.960472 10.0555 2.72214 7.42262C4.4838 4.78973 6.9874 2.73904 9.91568 1.53042C12.844 0.321805 16.0651 0.0096643 19.171 0.63354C22.2768 1.25742 25.1276 2.78923 27.362 5.03488C29.5964 7.28053 31.114 10.1389 31.7223 13.2479C32.3306 16.3568 32.0023 19.5764 30.779 22.4986C29.5557 25.4207 27.4925 27.914 24.8508 29.6625C22.2091 31.4109 19.1078 32.3358 15.94 32.32Z" fill="#F0F1F3"/>
<path d="M23.77 16.52C23.7777 16.7315 23.7417 16.9422 23.6644 17.1392C23.587 17.3361 23.4699 17.515 23.3203 17.6647C23.1707 17.8143 22.9919 17.9316 22.795 18.0091C22.5981 18.0866 22.3873 18.1226 22.1759 18.1151C21.9644 18.1075 21.7568 18.0564 21.5659 17.965C21.3751 17.8737 21.2051 17.7439 21.0666 17.5839C20.9281 17.4239 20.8241 17.2371 20.761 17.0352C20.6979 16.8332 20.6772 16.6204 20.7 16.41C20.6769 16.2008 20.7006 15.9891 20.7694 15.7901C20.8382 15.5912 20.9503 15.4101 21.0977 15.2598C21.2451 15.1096 21.424 14.9939 21.6216 14.9213C21.8191 14.8487 22.0304 14.8209 22.24 14.84C23.19 14.84 23.73 15.46 23.77 16.52Z" fill="#03B150"/>
<path d="M9.74999 18C9.55336 18.015 9.35573 17.9899 9.16903 17.9264C8.98234 17.8629 8.81044 17.7622 8.66372 17.6305C8.517 17.4987 8.3985 17.3386 8.31536 17.1597C8.23222 16.9809 8.18617 16.7871 8.17999 16.59C8.1579 16.3792 8.17956 16.1661 8.24363 15.964C8.3077 15.762 8.41281 15.5753 8.55235 15.4158C8.69189 15.2562 8.86285 15.1272 9.05456 15.0367C9.24627 14.9463 9.45459 14.8964 9.66647 14.8902C9.87835 14.884 10.0892 14.9216 10.2859 15.0006C10.4826 15.0797 10.6608 15.1985 10.8095 15.3496C10.9581 15.5007 11.074 15.6809 11.1498 15.8789C11.2256 16.0768 11.2597 16.2883 11.25 16.5C11.2555 16.6985 11.2205 16.896 11.147 17.0805C11.0736 17.265 10.9633 17.4326 10.8229 17.573C10.6825 17.7134 10.515 17.8237 10.3305 17.8971C10.146 17.9705 9.94848 18.0055 9.74999 18V18Z" fill="#03B151"/>
<path d="M15.83 14.91C16.92 14.96 17.51 15.52 17.51 16.47C17.5206 16.8758 17.3696 17.2692 17.0901 17.5636C16.8107 17.858 16.4258 18.0294 16.02 18.04C15.6142 18.0506 15.2208 17.8996 14.9264 17.6202C14.632 17.3407 14.4606 16.9558 14.45 16.55C14.4279 16.3508 14.4466 16.1492 14.5048 15.9574C14.563 15.7656 14.6595 15.5876 14.7886 15.4343C14.9176 15.2809 15.0765 15.1554 15.2555 15.0653C15.4345 14.9752 15.6299 14.9223 15.83 14.91V14.91Z" fill="#04B151"/>
</svg>
