<svg width="18" height="18" viewBox="0 0 18 18" fill="none" xmlns="http://www.w3.org/2000/svg">
<path d="M17.9 9.30998C18.31 13.31 13.71 17.98 8.96 17.82C4.85 17.68 0.329999 13.59 0.479999 8.92999C0.617921 6.64025 1.61364 4.48658 3.26868 2.89825C4.92372 1.30993 7.11652 0.403625 9.41 0.359985C13.76 0.429985 18.3 4.53998 17.9 9.30998Z" fill="#D5D5D5"/>
<path d="M9.31999 1.72C10.3067 1.70448 11.2864 1.88754 12.2009 2.25829C13.1154 2.62903 13.946 3.17988 14.6433 3.87809C15.3406 4.5763 15.8904 5.40762 16.26 6.32259C16.6296 7.23756 16.8114 8.2175 16.7946 9.20415C16.7779 10.1908 16.5629 11.164 16.1624 12.0659C15.7619 12.9678 15.1842 13.7799 14.4636 14.454C13.7429 15.1281 12.8941 15.6505 11.9675 15.9899C11.0409 16.3294 10.0556 16.479 9.06999 16.43C7.16204 16.3351 5.36574 15.502 4.06074 14.107C2.75574 12.7119 2.04429 10.8641 2.07675 8.95402C2.10921 7.04398 2.88304 5.22139 4.23469 3.87146C5.58635 2.52153 7.40992 1.75002 9.31999 1.72V1.72Z" fill="#FEFEFE"/>
<path d="M14.97 9.23999C14.9702 9.76019 14.7678 10.26 14.4056 10.6334C14.0434 11.0068 13.55 11.2244 13.03 11.24C12.4996 11.2466 11.9882 11.0423 11.6085 10.6719C11.2287 10.3015 11.0116 9.79542 11.005 9.26499C10.9984 8.73456 11.2027 8.22322 11.5731 7.84346C11.9435 7.4637 12.4496 7.24662 12.98 7.23999C13.5087 7.24263 14.0148 7.45451 14.3878 7.8293C14.7607 8.20409 14.97 8.71129 14.97 9.23999Z" fill="#55358C"/>
<path d="M6.99 9.23999C7.01455 9.74341 6.83913 10.2361 6.50196 10.6108C6.16479 10.9854 5.69322 11.2116 5.19 11.24C4.65957 11.24 4.15086 11.0293 3.77579 10.6542C3.40072 10.2791 3.19 9.77042 3.19 9.23999C3.19 8.70956 3.40072 8.20085 3.77579 7.82578C4.15086 7.4507 4.65957 7.23999 5.19 7.23999C5.69042 7.27591 6.15746 7.50431 6.49308 7.87722C6.8287 8.25013 7.00681 8.73857 6.99 9.23999V9.23999Z" fill="#53338A"/>
<path d="M9.12 10.09C9.5 9.2 10.02 8.66 9.76 7.85C9.61 7.38 9.95 7.36 10.27 7.35C10.59 7.34 10.95 7.54 10.78 7.99C10.41 8.99 10.01 9.93 9.61 10.89C9.41 11.38 9.06 11.32 8.83 10.97C8.16 9.97001 8.03 8.71001 7.23 7.73001C6.97 7.41001 7.57 7.34001 7.83 7.36001C8.09 7.38001 8.83 7.18 8.61 7.82C8.3 8.69 8.94 9.16 9.12 10.09Z" fill="#56378D"/>
<path d="M11.85 9.27C11.92 8.54 12.21 7.95 13.02 7.95C13.1864 7.94141 13.3527 7.96939 13.5071 8.03198C13.6615 8.09457 13.8003 8.19024 13.9137 8.31227C14.0272 8.4343 14.1125 8.57972 14.1637 8.73827C14.2149 8.89683 14.2307 9.06468 14.21 9.23001C14.21 10.02 13.86 10.64 13 10.62C12.14 10.6 11.91 10 11.85 9.27Z" fill="#FBFBFC"/>
<path d="M3.94 9.3C3.94 8.56 4.24 7.97999 5.05 7.94999C5.21589 7.93615 5.3828 7.95882 5.53899 8.01639C5.69519 8.07396 5.83688 8.16503 5.95411 8.28322C6.07134 8.4014 6.16127 8.54382 6.21757 8.70048C6.27387 8.85713 6.29518 9.02422 6.28 9.18999C6.28 9.95999 5.96 10.62 5.09 10.62C4.22 10.62 3.97 10.06 3.94 9.3Z" fill="#FAF9FB"/>
</svg>
