<svg width="18" height="18" viewBox="0 0 18 18" fill="none" xmlns="http://www.w3.org/2000/svg">
<path d="M8.72999 0.429993C13.4 0.689993 17.22 3.83999 17.31 9.00999C17.3493 10.1594 17.1568 11.3049 16.7441 12.3784C16.3313 13.4518 15.7067 14.4312 14.9075 15.2582C14.1083 16.0852 13.1508 16.7429 12.0921 17.192C11.0334 17.6412 9.89506 17.8727 8.74499 17.8727C7.59492 17.8727 6.45662 17.6412 5.3979 17.192C4.33917 16.7429 3.38168 16.0852 2.58247 15.2582C1.78326 14.4312 1.15867 13.4518 0.745921 12.3784C0.333174 11.3049 0.140708 10.1594 0.179988 9.00999C0.249988 3.99999 3.91999 0.729993 8.72999 0.429993Z" fill="#D5D5D5"/>
<path d="M8.82999 16.68C6.82041 16.696 4.88652 15.9144 3.45242 14.5065C2.01833 13.0987 1.20111 11.1795 1.17999 9.17001C1.17203 7.16498 1.9609 5.2389 3.37305 3.8155C4.78519 2.3921 6.70495 1.58797 8.70999 1.58002C10.715 1.57206 12.6411 2.36092 14.0645 3.77307C15.4879 5.18522 16.292 7.10498 16.3 9.11001C16.308 11.1029 15.5267 13.0178 14.127 14.4364C12.7272 15.8549 10.8228 16.6615 8.82999 16.68V16.68Z" fill="#FEFEFE"/>
<path d="M12.59 7C12.27 8.71 11.92 10.4 11.66 12.12C11.55 12.85 11.23 13.06 10.55 13.05C9.29 13.05 8.02001 13.05 6.76001 13.05C6.63307 13.0748 6.50226 13.0715 6.37669 13.0406C6.25113 13.0096 6.13381 12.9517 6.03291 12.8708C5.93202 12.7899 5.84997 12.6879 5.79248 12.5721C5.73499 12.4563 5.70343 12.3293 5.70001 12.2C5.41001 10.54 5.10001 8.88 4.79001 7.1C5.92001 7.42 6.34 8.48 7.3 8.97C7.73 7.84 8.14001 6.72 8.60001 5.5C9.18062 6.31574 9.58892 7.24123 9.8 8.22C10.04 8.85 10.33 9.01 10.8 8.47C11.27 7.93 11.71 7.3 12.17 6.72L12.59 7Z" fill="#FED36C"/>
</svg>
