<svg width="34" height="34" viewBox="0 0 34 34" fill="none" xmlns="http://www.w3.org/2000/svg">
<path d="M33.02 17C33.0141 20.2449 32.0456 23.4151 30.2373 26.1094C28.429 28.8037 25.862 30.901 22.8613 32.1358C19.8606 33.3707 16.561 33.6877 13.3801 33.0467C10.1991 32.4056 7.27986 30.8353 4.99169 28.5345C2.70352 26.2338 1.14929 23.3059 0.525715 20.1215C-0.0978628 16.9371 0.237235 13.6393 1.48859 10.6454C2.73995 7.6515 4.85131 5.09612 7.5555 3.30262C10.2597 1.50912 13.4351 0.558129 16.68 0.569995C18.8323 0.573925 20.9627 1.00224 22.9492 1.83042C24.9358 2.65861 26.7395 3.8704 28.2572 5.39646C29.7749 6.92253 30.9768 8.7329 31.794 10.724C32.6113 12.715 33.0279 14.8477 33.02 17V17Z" fill="#CBEEDB"/>
<path d="M11.16 6.57001C11.6231 6.45775 12.0947 6.38416 12.57 6.35001C15.89 6.35001 19.2 6.35001 22.57 6.35001C22.81 6.31311 23.0554 6.33204 23.2869 6.40533C23.5185 6.47863 23.73 6.60431 23.9051 6.77263C24.0802 6.94094 24.2141 7.14736 24.2965 7.37583C24.3788 7.60431 24.4074 7.84869 24.38 8.09001C24.38 14.03 24.38 19.97 24.38 25.91C24.3263 26.4298 24.1442 26.9281 23.85 27.36C23.752 27.5801 23.5844 27.7619 23.3731 27.8775C23.1617 27.9932 22.9182 28.0362 22.68 28C19.04 28.05 15.41 28.12 11.77 28C11.5974 27.978 11.4289 27.9309 11.27 27.86C10.9193 27.671 10.6274 27.389 10.4263 27.045C10.2252 26.7011 10.1227 26.3084 10.13 25.91C10.02 20.01 10.04 14.11 10.13 8.22002C10.1 7.46002 10.28 6.75001 11.16 6.57001Z" fill="#FDFEFD"/>
<path d="M11.16 6.57C10.54 6.95 10.54 7.57 10.54 8.19C10.54 14.03 10.54 19.88 10.54 25.73C10.5073 26.0769 10.5594 26.4265 10.6918 26.7487C10.8242 27.071 11.0329 27.3563 11.3 27.58C10.53 28.35 9.90002 28.19 9.20002 27.03C9.02653 25.8617 8.98293 24.6779 9.07001 23.5C9.07001 18.38 9.07001 13.2633 9.07001 8.15C9.06001 6.5 9.83001 5.94 11.16 6.57Z" fill="#00B04F"/>
<path d="M9.18999 27C9.78999 27.54 10.41 28 11.29 27.55L22.72 27.62C23.1134 27.6248 23.4995 27.5135 23.83 27.3C25.278 27.2465 26.7261 27.4014 28.13 27.76C26.23 28.89 8.13 28.99 5.03 27.88C6.41 27.25 7.92999 27.69 9.18999 27Z" fill="#9BE0BA"/>
<path d="M2.82998 16.72C2.804 15.9452 2.94608 15.174 3.24644 14.4594C3.5468 13.7447 3.99832 13.1036 4.56999 12.58C4.85999 12.3 5.16999 11.98 5.56999 12.4C5.96999 12.82 5.65999 13.02 5.44999 13.32C3.49999 16.09 3.44999 17.45 5.31999 20.15C5.54999 20.49 6.02999 20.86 5.47999 21.24C4.92999 21.62 4.64998 21.19 4.35998 20.84C3.35993 19.702 2.81512 18.2349 2.82998 16.72V16.72Z" fill="#68D096"/>
<path d="M30.08 16.85C30.0282 18.3439 29.4305 19.7671 28.4 20.85C28.11 21.12 27.82 21.52 27.4 21.19C26.98 20.86 27.23 20.47 27.49 20.19C28.3761 19.2902 28.8728 18.0779 28.8728 16.815C28.8728 15.5521 28.3761 14.3398 27.49 13.44C27.26 13.15 26.91 12.82 27.36 12.44C27.81 12.06 28.16 12.44 28.44 12.73C29.429 13.8831 30.006 15.3326 30.08 16.85V16.85Z" fill="#68D096"/>
<path d="M5.44 16.81C5.45403 15.8843 5.77795 14.99 6.36 14.27C6.40592 14.1944 6.4675 14.1295 6.54057 14.0797C6.61365 14.0298 6.69653 13.9962 6.78368 13.9811C6.87082 13.9659 6.96018 13.9696 7.04579 13.9918C7.1314 14.0141 7.21127 14.0544 7.28001 14.11C7.34074 14.157 7.39074 14.2165 7.42667 14.2844C7.4626 14.3522 7.48363 14.427 7.48836 14.5037C7.49309 14.5804 7.48141 14.6571 7.4541 14.7289C7.42679 14.8007 7.38449 14.8659 7.33 14.92C6.92777 15.47 6.71097 16.1337 6.71097 16.815C6.71097 17.4964 6.92777 18.1601 7.33 18.71C7.5 18.98 7.61 19.28 7.33 19.53C7.05 19.78 6.64001 19.59 6.43001 19.33C5.85575 18.6077 5.51094 17.73 5.44 16.81V16.81Z" fill="#69D097"/>
<path d="M27.27 16.74C27.3635 17.6182 27.1085 18.4979 26.56 19.19C26.36 19.46 26.13 19.81 25.71 19.58C25.6289 19.541 25.558 19.4836 25.5029 19.4124C25.4479 19.3413 25.4101 19.2583 25.3926 19.17C25.3752 19.0817 25.3785 18.9906 25.4023 18.9038C25.4262 18.817 25.4699 18.737 25.53 18.67C25.9359 18.1235 26.155 17.4608 26.155 16.78C26.155 16.0992 25.9359 15.4365 25.53 14.89C25.4795 14.831 25.4418 14.7621 25.4193 14.6877C25.3968 14.6134 25.3901 14.5351 25.3995 14.458C25.4089 14.3809 25.4342 14.3065 25.4739 14.2398C25.5136 14.173 25.5668 14.1151 25.63 14.07C25.97 13.84 26.27 14 26.53 14.31C26.8117 14.6437 27.0225 15.0312 27.1497 15.449C27.277 15.8667 27.3179 16.306 27.27 16.74V16.74Z" fill="#68D096"/>
<path d="M23.33 16.45C23.33 18.55 23.33 20.65 23.33 22.75C23.33 23.53 23.11 23.82 22.33 23.81C19.05 23.77 15.7733 23.77 12.5 23.81C11.67 23.81 11.5 23.51 11.5 22.73C11.5 18.5033 11.5 14.2666 11.5 10.02C11.5 9.23998 11.71 8.95998 12.5 9.01998C15.78 9.01998 19.05 9.01998 22.33 9.01998C23.17 9.01998 23.33 9.30999 23.33 10.08C23.3 12.17 23.33 14.31 23.33 16.45Z" fill="#00B04F"/>
<path d="M17.32 24.74C17.98 24.84 18.32 25.1 18.32 25.74C18.32 26.38 17.99 26.74 17.4 26.74C17.2788 26.74 17.1588 26.7158 17.0471 26.6689C16.9354 26.6219 16.8341 26.553 16.7494 26.4664C16.6646 26.3798 16.598 26.2771 16.5535 26.1644C16.5089 26.0516 16.4873 25.9312 16.49 25.81C16.469 25.56 16.5426 25.3113 16.6963 25.1131C16.8501 24.9149 17.0727 24.7817 17.32 24.74Z" fill="#B5E8CC"/>
<path d="M17.38 19.24C15.96 19.67 15.73 18.89 15.86 17.74C15.93 17.14 15.86 16.74 15.06 16.74C14.26 16.74 14.26 16.32 14.71 15.74L14.8 15.65C17.38 12.41 17.68 12.42 20.14 15.78C20.49 16.25 20.69 16.71 19.85 16.68C19.01 16.65 18.85 17.02 18.95 17.68C19.12 19 18.68 19.63 17.38 19.24Z" fill="#FDFEFD"/>
</svg>
