<svg width="33" height="35" viewBox="0 0 33 35" fill="none" xmlns="http://www.w3.org/2000/svg">
<path d="M22.02 11C20.23 11 18.44 11 16.65 11C15.5428 11.016 14.4599 10.6754 13.5611 10.0285C12.6624 9.38166 11.9956 8.46285 11.6593 7.40787C11.323 6.35288 11.3349 5.21768 11.6934 4.17002C12.0519 3.12235 12.7379 2.21778 13.65 1.58999C14.5574 0.96759 15.6403 0.652189 16.74 0.689997C20.19 0.689997 23.64 0.629997 27.09 0.689997C28.2802 0.643411 29.4504 1.00606 30.4057 1.71752C31.361 2.42899 32.0437 3.44631 32.34 4.59999C32.597 5.71577 32.4843 6.88485 32.0189 7.93101C31.5536 8.97717 30.7608 9.8437 29.76 10.4C28.9001 10.836 27.9434 11.0459 26.98 11.01C25.34 11 23.68 11 22.02 11Z" fill="#ED6352"/>
<path d="M24.2 12.09C27.68 12 27.68 12 27.68 15.41V26.51C27.6777 26.752 27.6057 26.9882 27.4727 27.1903C27.3397 27.3925 27.1513 27.5521 26.93 27.65C26.4966 27.8565 26.0199 27.956 25.54 27.94C22.99 27.94 20.43 27.99 17.88 27.94C17.4462 27.9533 17.0141 27.8784 16.61 27.72C16.2676 27.5072 15.9827 27.2135 15.7804 26.8648C15.5781 26.516 15.4647 26.1229 15.45 25.72C14.97 22.72 15.28 19.72 15.2 16.72C15.2 15.72 15.2 14.72 15.2 13.72C15.2 13.2 15.2 12.65 15.66 12.28C17.13 11.77 18.66 12.12 20.12 12.07C20.325 12.3624 20.4302 12.7131 20.42 13.07C20.48 13.59 20.29 14.31 21.02 14.47C21.8521 14.7213 22.7454 14.6789 23.55 14.35C23.89 14.18 23.86 13.76 23.88 13.42C23.827 12.9528 23.9403 12.4819 24.2 12.09V12.09Z" fill="#FCF3D8"/>
<path d="M28.96 28.11C26.59 30.93 23.82 33.21 20.14 34.11C17.3776 34.8867 14.4547 34.889 11.6911 34.1165C8.92741 33.344 6.42935 31.8265 4.47 29.73C3.94 29.21 3.47 28.66 2.94 28.12C3.04032 28.0022 3.16965 27.9125 3.3152 27.8599C3.46076 27.8073 3.61751 27.7935 3.77 27.82C5.47 28.06 7.18001 27.82 8.87001 27.99C15.0704 28.3168 21.2848 28.2733 27.48 27.86C27.99 27.83 28.53 27.66 28.96 28.11Z" fill="#CBEEDB"/>
<path d="M15.62 12.32C15.62 16.77 15.42 21.23 15.75 25.68C15.7626 26.0253 15.8464 26.3643 15.9961 26.6758C16.1458 26.9873 16.3582 27.2645 16.62 27.49C16.22 28.02 15.62 27.96 15.06 27.97C12.06 28.02 9.12001 27.97 6.15001 27.97C5.62001 27.97 4.97001 28.09 4.76001 27.32C5.39484 27.0143 6.0904 26.8555 6.79501 26.8555C7.49963 26.8555 8.19517 27.0143 8.83 27.32L9.44 27.14C10.5442 26.9071 11.6787 26.8531 12.8 26.98C13.8 26.98 14.22 26.59 14.15 25.59C14.0783 25.0301 14.102 24.462 14.22 23.91V23.43C14.22 22.43 14.13 21.51 12.78 21.51C12.7258 21.5095 12.6723 21.4971 12.6234 21.4737C12.5745 21.4502 12.5313 21.4163 12.497 21.3743C12.4626 21.3323 12.4379 21.2833 12.4246 21.2307C12.4113 21.1781 12.4097 21.1233 12.42 21.07C13.08 20.96 13.77 21.26 14.62 20.85C13.01 19.64 11.01 19.98 9.52 18.98C8.79 17.69 9.24001 16.32 9.25001 14.98C9.25001 14.54 9.62001 13.98 9.00001 13.74C8.38001 13.5 8.39 14.12 8.16 14.39C7.04388 15.8332 5.54298 16.932 3.83 17.56C3.1321 15.7811 3.07904 13.814 3.68001 12C3.73598 11.8111 3.84652 11.6429 3.99774 11.5166C4.14897 11.3903 4.33414 11.3114 4.53001 11.29C7.06001 10.73 9.62 11.13 12.16 11.05C13.4159 11.1103 14.6233 11.5535 15.62 12.32Z" fill="#F29C56"/>
<path d="M4.54001 11.33C4.24525 11.6502 4.02369 12.0308 3.89073 12.4452C3.75777 12.8596 3.71657 13.298 3.77 13.73C3.83 15 3.77 16.26 3.77 17.53C3.15631 17.6181 2.53118 17.5821 1.93167 17.4241C1.33216 17.266 0.770509 16.9892 0.280012 16.61C0.0200121 16.32 0.180009 16.06 0.230009 15.76C0.675267 13.2335 1.72678 10.8527 3.29432 8.82183C4.86187 6.79098 6.89867 5.17071 9.23001 4.09999C9.57001 3.92999 10.07 3.70999 10.33 3.83999C10.81 4.06999 10.33 4.51999 10.33 4.83999C10.2219 5.85751 10.3329 6.88639 10.6554 7.85747C10.978 8.82855 11.5046 9.71935 12.2 10.47C10.04 10.47 8.13001 10.42 6.20001 10.47C5.62001 10.56 4.75001 10.32 4.54001 11.33Z" fill="#CBEEDB"/>
<path d="M27.1 27.29L27.63 26.51C28.06 26.13 27.89 25.61 27.89 25.15C27.89 21.23 27.97 17.3 27.89 13.37C27.89 12.01 28.71 11.96 29.54 11.67C30.54 11.32 30.66 12.18 30.85 12.67C32.4072 16.7413 32.2922 21.2631 30.53 25.25C30.22 25.96 29.46 26.55 29.79 27.49C29.3608 27.685 28.8895 27.7688 28.4194 27.7339C27.9494 27.6989 27.4956 27.5463 27.1 27.29V27.29Z" fill="#CBEEDB"/>
<path d="M27.1 27.29L29.75 27.54C29.94 27.54 30.23 27.48 30.31 27.73C30.39 27.98 30.16 28.02 29.99 28.03C29.65 28.03 29.31 28.08 28.99 28.11C20.3368 28.7939 11.6432 28.7939 2.99 28.11C2.65 28.11 2.31 28.11 1.99 28.03C1.82 28.03 1.62001 27.91 1.67001 27.73C1.72001 27.55 2.03001 27.58 2.23001 27.54C2.82403 27.1445 3.51673 26.9228 4.23001 26.9C4.36371 26.8854 4.49827 26.9185 4.6099 26.9935C4.72153 27.0686 4.80305 27.1807 4.84001 27.31C4.97728 27.424 5.13844 27.5056 5.31153 27.5489C5.48463 27.5922 5.66524 27.5959 5.84001 27.56L16.69 27.49C19.76 27.49 22.83 27.49 25.9 27.49C26.3051 27.4586 26.7066 27.3916 27.1 27.29V27.29Z" fill="#9ADFB9"/>
<path d="M14.22 23.87C14.82 24.79 14.4 25.81 14.49 26.79C14.4964 26.8568 14.4878 26.9242 14.4648 26.9873C14.4418 27.0503 14.405 27.1074 14.357 27.1544C14.3091 27.2014 14.2513 27.237 14.1877 27.2588C14.1242 27.2805 14.0567 27.2877 13.99 27.28C12.47 27.22 10.94 27.53 9.44 27.1L7.44 23.2C9.49 24.01 10.84 25.26 12.62 26.08C12.49 24.92 11.57 24.67 10.99 24.14C10.41 23.61 9.66001 23.06 8.99001 22.42C10.9 22.55 12.36 23.92 14.22 23.87Z" fill="#F18625"/>
<path d="M4.79001 27.31L4.28001 27.07C3.22001 26.15 2.97001 23.9 3.78001 22.36C4.80381 22.6948 5.71436 23.3076 6.41 24.13C7.35125 25.0694 8.16489 26.1285 8.83 27.28L4.79001 27.31Z" fill="#F28624"/>
<path d="M3.78 22.36C3.96 23.93 3.38 25.58 4.28 27.07C3.60527 27.3463 2.88827 27.5052 2.15999 27.54C2.51999 27.01 2.16 26.62 1.89 26.23C1.24005 25.0044 0.739789 23.705 0.399997 22.36C0.179997 21.63 0.399994 21.24 1.20999 21.58C2.01999 21.92 3.03 21.74 3.78 22.36Z" fill="#CBEEDB"/>
<path d="M24.2 12.09C24.34 15.51 24.44 14.79 21.56 14.93C20.38 14.99 19.85 14.64 20.03 13.41C20.0716 12.978 20.0883 12.5439 20.08 12.11L24.2 12.09Z" fill="#F29F5A"/>
<path d="M12.41 21C12.6066 21.169 12.8612 21.2551 13.12 21.24C14.68 21.36 14.9 21.79 14.21 23.36C12.78 22.36 10.94 22.12 9.45999 20.82C10.4398 20.5911 11.4652 20.6536 12.41 21V21Z" fill="#F28727"/>
<path d="M9.23999 14.94C9.83999 16.24 9.37 17.61 9.51 18.94C7.51 18.16 7.25999 17.34 8.59999 15.76C8.82999 15.5 9.02999 15.22 9.23999 14.94Z" fill="#F28B2E"/>
<path d="M23.44 5.58001C23.1035 5.92929 22.8715 6.36573 22.77 6.84C22.61 7.18 22.58 7.72 22.15 7.75C21.72 7.78 21.69 7.22 21.52 6.89C21.35 6.56 21.38 6.02 20.83 5.67C20.8505 6.05973 20.8505 6.45027 20.83 6.84C20.83 7.18 21.06 7.76001 20.46 7.76001C20.02 7.76001 20.11 7.23 20.1 6.9C20.1 6.12 20.1 5.33001 20.1 4.55001C20.1 4.20001 20.1 3.82 20.57 3.75C21.04 3.68 21.25 3.95001 21.41 4.37001C21.5401 5.03301 21.8359 5.65226 22.27 6.17C22.52 5.52 22.75 4.92 22.99 4.32C23.12 3.99 23.29 3.7 23.74 3.74C24.19 3.78 24.24 4.13 24.24 4.49C24.24 5.4 24.24 6.32001 24.24 7.23001C24.24 7.50001 24.24 7.80001 23.86 7.80001C23.48 7.80001 23.47 7.52 23.47 7.25C23.44 6.75 23.44 6.24001 23.44 5.58001Z" fill="#FDF3F2"/>
<path d="M27.25 4.43999C26.25 4.31999 25.65 4.80999 25.65 5.82999C25.65 6.61999 26.03 7.16999 26.93 7.13999C27.15 7.13999 27.39 7.13999 27.49 6.87999C27.5448 6.78456 27.5618 6.67208 27.5377 6.56472C27.5137 6.45736 27.4503 6.36291 27.36 6.29999C27.15 6.13999 26.64 6.14999 26.89 5.70999C27.14 5.26999 27.52 5.54999 27.89 5.53999C28.26 5.52999 28.42 5.75999 28.42 6.11999C28.42 6.80999 28.59 7.59999 27.63 7.79999C27.1499 7.96842 26.6255 7.96026 26.1508 7.777C25.6762 7.59374 25.2824 7.24736 25.04 6.79999C24.8471 6.45375 24.7556 6.06016 24.776 5.66431C24.7964 5.26847 24.9279 4.88638 25.1554 4.56181C25.3829 4.23723 25.6972 3.98331 26.0624 3.82912C26.4275 3.67493 26.8287 3.62672 27.22 3.68999C27.63 3.68999 28.22 3.68999 28.15 4.29999C28.08 4.90999 27.53 4.30999 27.25 4.43999Z" fill="#FDF3F1"/>
<path d="M19.55 5.81001C19.5583 6.08192 19.511 6.35265 19.411 6.60565C19.311 6.85865 19.1605 7.0886 18.9686 7.28143C18.7767 7.47425 18.5475 7.6259 18.295 7.7271C18.0425 7.82831 17.772 7.87694 17.5 7.87001C17.2261 7.87059 16.9549 7.81488 16.7034 7.70634C16.4519 7.5978 16.2253 7.43874 16.0378 7.23903C15.8502 7.03932 15.7058 6.80322 15.6133 6.54536C15.5207 6.2875 15.4822 6.01338 15.5 5.74001C15.4999 5.47224 15.5535 5.20717 15.6578 4.96053C15.762 4.71388 15.9147 4.49068 16.1068 4.30415C16.299 4.11763 16.5266 3.97158 16.7762 3.87467C17.0258 3.77777 17.2924 3.73197 17.56 3.74001C17.8278 3.74118 18.0926 3.79613 18.3388 3.90158C18.585 4.00704 18.8074 4.16086 18.993 4.35391C19.1786 4.54697 19.3236 4.77533 19.4192 5.02545C19.5149 5.27558 19.5594 5.54237 19.55 5.81001Z" fill="#FDF6F6"/>
<path d="M22.19 24.93H19.43C19.02 24.93 18.55 24.85 18.52 24.39C18.445 23.3447 18.445 22.2953 18.52 21.25C18.52 20.79 19.04 20.74 19.45 20.74C21.2815 20.6249 23.1185 20.6249 24.95 20.74C26.7 20.96 25.5 22.5 25.74 23.4C25.88 23.94 26.15 24.91 24.93 24.88C24.02 24.91 23.1 24.93 22.19 24.93Z" fill="#FEFCFA"/>
<path d="M18.68 5.69998C18.68 6.54998 18.39 7.14998 17.49 7.14998C16.59 7.14998 16.31 6.51998 16.32 5.73998C16.33 4.95998 16.6 4.43998 17.44 4.41998C18.28 4.39998 18.68 4.92998 18.68 5.69998Z" fill="#ED6554"/>
<path d="M22.22 21.78C22.65 21.78 23.09 21.78 23.53 21.78C24.35 21.71 24.79 21.87 24.79 22.88C24.79 23.89 24.23 23.94 23.48 23.88C22.48 23.88 21.48 23.88 20.48 23.88C19.48 23.88 19.59 23.36 19.56 22.71C19.53 22.06 19.79 21.71 20.56 21.71C21.08 21.82 21.68 21.78 22.22 21.78Z" fill="#F29E59"/>
</svg>
