<svg width="34" height="34" viewBox="0 0 34 34" fill="none" xmlns="http://www.w3.org/2000/svg">
<path d="M5.05 28.35C2.14394 25.1007 0.581763 20.8682 0.679996 16.51C0.804675 12.5248 2.37687 8.72158 5.10251 5.8116C7.82815 2.90162 11.5205 1.08425 15.489 0.699407C19.4575 0.314568 23.4303 1.38862 26.6643 3.72068C29.8983 6.05273 32.1719 9.48304 33.06 13.37C33.6009 15.6927 33.6224 18.1061 33.1228 20.438C32.6232 22.7699 31.615 24.9628 30.17 26.86C29.7401 27.2911 29.427 27.8245 29.26 28.41C28.2 28.41 26.95 28.98 26.38 27.47C26.6054 25.6506 27.0244 23.8604 27.63 22.13C27.6617 22.0015 27.7087 21.8773 27.77 21.76C27.908 21.4944 28.0985 21.2597 28.33 21.07C28.4944 20.9273 28.6078 20.7349 28.6529 20.5219C28.6981 20.309 28.6724 20.0871 28.58 19.89C28.44 19.5 28.03 19.58 27.69 19.55C27.1795 19.6032 26.6637 19.5276 26.19 19.33C25.9 19.07 26.03 18.74 26.04 18.43C26.2829 17.6185 26.2477 16.7492 25.94 15.96C25.88 15.85 25.83 15.74 25.78 15.63C25.6 15.23 25.31 14.86 25.51 14.39C26.5892 12.9458 27.2781 11.2479 27.51 9.46C27.0109 9.82814 26.5396 10.2326 26.1 10.67C25.84 10.89 25.56 11.23 25.19 11.05C24.82 10.87 24.82 10.38 24.89 10.05C25.0668 8.87208 25.1171 7.67862 25.04 6.49C23.86 7.49 23.88 9.04999 22.74 9.87999C21.82 9.53999 22.07 8.46 21.46 7.8C20.8178 9.52646 20.6117 11.3848 20.86 13.21C20.69 13.78 20.14 13.94 19.72 14.21C18.9578 14.7964 18.4324 15.6378 18.24 16.58C18.0498 17.5521 17.7126 18.4895 17.24 19.36C17.0906 19.4552 16.9171 19.5058 16.74 19.5058C16.5628 19.5058 16.3894 19.4552 16.24 19.36C15.96 18.61 16.16 17.79 15.9 17.03C15.78 15.69 15.9 14.34 15.84 13.03C15.84 12.89 15.84 12.75 15.84 12.61C15.851 12.2217 15.7812 11.8354 15.6348 11.4756C15.4885 11.1158 15.2689 10.7904 14.99 10.52C14.15 9.51999 13.33 8.51999 13.5 7.08999C13.41 5.62999 13.27 5.5 11.78 5.55C11.6395 5.62674 11.5141 5.72839 11.41 5.85C11.3284 6.02009 11.286 6.20634 11.286 6.39499C11.286 6.58365 11.3284 6.7699 11.41 6.94C11.4505 7.05712 11.4806 7.17759 11.5 7.3C11.66 8.53 10.79 9.3 10.17 10.15C9.54999 11 8.81 11.86 8.98 13.07C8.98 14.44 8.98 15.81 8.98 17.17C9.05665 17.8426 8.99193 18.5238 8.79 19.17C8.23 19.86 7.44 19.58 6.73 19.65C6.31 19.65 5.82 19.58 5.62 20.11C5.42 20.64 5.79 20.99 6.22 21.25C6.45168 21.4903 6.61706 21.7866 6.69999 22.11C6.86138 22.6002 6.93913 23.114 6.93 23.63C6.80608 23.98 6.56143 24.2743 6.23999 24.46C5.92999 24.67 5.58999 24.85 5.45999 25.25C5.45999 25.86 5.92999 26.01 6.45999 26.07C6.69524 26.0642 6.9292 26.1064 7.14757 26.1941C7.36594 26.2818 7.56412 26.4131 7.73 26.58C7.8876 26.7915 7.99993 27.0332 8.05999 27.29C8.08684 27.4292 8.08378 27.5725 8.05102 27.7104C8.01826 27.8484 7.95656 27.9777 7.87 28.09C7.45503 28.3558 6.98235 28.5181 6.49165 28.5633C6.00095 28.6086 5.50656 28.5354 5.05 28.35Z" fill="#CBEEDB"/>
<path d="M28.18 28.92C26.0116 31.1041 23.2143 32.5552 20.18 33.07C17.7554 33.5541 15.2529 33.4854 12.8585 32.8691C10.4642 32.2527 8.23952 31.1046 6.35001 29.51C6.16235 29.3321 5.99469 29.1343 5.85001 28.92C6.02739 28.7555 6.2417 28.636 6.4749 28.5716C6.7081 28.5072 6.95335 28.4998 7.19001 28.55C11.81 29.08 16.44 28.69 21.07 28.77C22.9447 28.9233 24.8309 28.8561 26.69 28.57C26.9471 28.4914 27.2205 28.4823 27.4823 28.5438C27.744 28.6053 27.9848 28.7351 28.18 28.92V28.92Z" fill="#CBEEDB"/>
<path d="M28.18 28.92C20.7493 29.34 13.3007 29.34 5.87 28.92C5.65 28.65 5.06 28.92 5.05 28.35L7.72 27.87C7.94647 27.7899 8.19353 27.7899 8.42 27.87C10.5022 28.0375 12.5926 28.0809 14.68 28C17.68 28 20.62 28 23.59 28C24.6411 28.1243 25.7025 27.8766 26.59 27.3C26.5849 27.4252 26.609 27.55 26.6603 27.6643C26.7116 27.7787 26.7888 27.8796 26.8857 27.9591C26.9827 28.0386 27.0967 28.0945 27.2189 28.1224C27.3411 28.1503 27.4682 28.1495 27.59 28.12C28.1591 28.1209 28.7239 28.219 29.26 28.41C28.97 28.8 28.49 28.69 28.18 28.92Z" fill="#98DEB8"/>
<path d="M26.57 27.3C26.39 28.24 25.79 28.41 24.9 28.4C19.7 28.4 14.5 28.4 9.31 28.4C8.86 28.4 8.31 28.63 7.96 28.16C8.18817 27.9898 8.44844 27.8674 8.72513 27.8004C9.00182 27.7334 9.28921 27.723 9.57 27.77C10.83 27.77 12.09 27.77 13.36 27.77C13.8815 27.8499 14.4135 27.7205 14.84 27.41C13.99 26.87 10.93 26.77 7.69 27.13L7.45 26.57C7.69 25.74 8.45 25.95 8.97 25.94C10.97 25.94 13.07 25.94 15.12 25.94C15.99 26.06 16.53 25.42 17.19 25.05C17.66 24.78 18.01 24.24 18.66 24.41C19.19 25.12 18.27 25.78 18.66 26.72C19.2733 25.668 19.6996 24.5176 19.92 23.32C20.1844 22.8806 20.5485 22.5096 20.9827 22.2368C21.417 21.9641 21.9094 21.7973 22.42 21.75C23.75 21.75 25.07 21.75 26.42 21.75C26.6725 21.7068 26.9314 21.7175 27.1795 21.7813C27.4277 21.845 27.6595 21.9604 27.86 22.12C27.4333 23.84 27.0033 25.5667 26.57 27.3Z" fill="#018E3F"/>
<path d="M22.68 9.73002C23.3126 8.18284 24.1428 6.72405 25.15 5.39001C25.4234 7.32015 25.3557 9.2833 24.95 11.19C25.7885 10.2714 26.7592 9.48275 27.83 8.85001C27.6893 10.9828 26.9047 13.0227 25.58 14.7C25.02 14.8 24.65 14.37 24.19 14.19C23.6175 13.9403 23.0211 13.7493 22.41 13.62C22.1566 13.5269 21.9347 13.364 21.77 13.15C21.52 12.59 21.82 12.08 21.92 11.55C22.02 11.02 21.92 10.13 22.68 9.73002Z" fill="#01B04F"/>
<path d="M16.09 12.66C16.2448 14.1259 16.2448 15.6041 16.09 17.07C14.322 17.7516 12.3694 17.7835 10.58 17.16C9.98078 15.6995 9.95932 14.0657 10.52 12.59C12.3414 12.0525 14.2826 12.0769 16.09 12.66V12.66Z" fill="#ED6352"/>
<path d="M6.68001 23.67L6.35001 22.09C6.43342 21.9891 6.537 21.9067 6.6541 21.8482C6.7712 21.7896 6.89923 21.7562 7.03001 21.75C10.2264 21.6216 13.4274 21.6583 16.62 21.86C17.31 22.23 17.04 22.8 16.94 23.34C16.7846 23.6874 16.5514 23.9943 16.2583 24.2371C15.9652 24.4799 15.6202 24.652 15.25 24.74C15.0994 24.7787 14.9453 24.8021 14.79 24.81C12.37 24.81 9.94001 24.86 7.51001 24.81C7.35715 24.7913 7.20846 24.7474 7.07001 24.68C6.90657 24.5745 6.78078 24.4199 6.71071 24.2385C6.64064 24.057 6.62989 23.858 6.68001 23.67Z" fill="#026B30"/>
<path d="M13.68 6.82001C13.45 8.33001 14.36 9.35001 15.25 10.35C15.5389 10.6113 15.7633 10.936 15.9056 11.2987C16.0479 11.6613 16.1041 12.052 16.07 12.44C14.46 12.6 12.85 12.44 11.24 12.52C10.4 12.52 10.24 12.08 10.43 11.44C10.8069 9.88079 11.2744 8.34485 11.83 6.84001C12.0939 6.63516 12.4176 6.52232 12.7516 6.51871C13.0857 6.51509 13.4117 6.62092 13.68 6.82001V6.82001Z" fill="#FEFDFD"/>
<path d="M15.6 26.27C13.34 26.27 11.07 26.27 8.81 26.27C8.35 26.27 7.81 26.11 7.45 26.5C7.07331 26.405 6.68805 26.3481 6.3 26.33C5.3 26.39 4.89 25.93 5.08 24.94C5.40662 24.716 5.79397 24.5974 6.19 24.6C9.19 24.82 12.19 24.6 15.19 24.74C15.3422 24.7854 15.4802 24.869 15.5909 24.9829C15.7016 25.0968 15.7813 25.2371 15.8224 25.3905C15.8635 25.5439 15.8647 25.7052 15.8257 25.8592C15.7868 26.0132 15.7091 26.1546 15.6 26.27V26.27Z" fill="#33C072"/>
<path d="M16.1 19.19H17.1C17.7951 18.8194 18.5944 18.6926 19.37 18.83C19.6 18.83 19.83 18.83 20.07 18.83C20.75 18.83 21.43 18.83 22.07 18.83H22.77C23.87 18.89 25.01 18.57 26.06 19.17C26.5308 19.1598 27.0018 19.1798 27.47 19.23C27.95 19.31 28.72 18.84 28.85 19.67C28.95 20.3 29.24 21.15 28.2 21.44C28.07 21.44 27.99 21.7 27.89 21.84C26.7915 21.6749 25.6789 21.6246 24.57 21.69C24.0166 21.7442 23.4586 21.6547 22.95 21.43C22.57 20.9 22.79 20.43 23.1 19.97C24.45 20.92 25.98 20.68 27.48 20.65C27.72 20.65 28.06 20.65 28.06 20.28C28.06 19.91 27.72 19.9 27.47 19.88C26 19.78 24.47 19.88 23.03 19.77C22.6315 19.8714 22.2211 19.9184 21.81 19.91C20.7283 19.825 19.6417 19.825 18.56 19.91C18.3 19.91 17.97 19.91 17.93 20.26C17.89 20.61 18.29 20.68 18.57 20.72C19.08 20.8 19.63 20.72 20.04 21.13C20.04 21.51 19.7 21.59 19.41 21.67C18.5989 21.7433 17.784 21.7667 16.97 21.74C13.86 21.74 10.76 21.74 7.66 21.74C7.09005 21.8124 6.51283 21.6814 6.03 21.37C5.03 21.51 5.03 20.84 5.03 20.14C5.03 19.44 5.45 19.24 6.1 19.26C6.75 19.28 7.66 19.26 8.45 19.21C9.11244 18.8605 9.87222 18.7409 10.61 18.87C11.94 18.8 13.27 18.87 14.61 18.87C14.8668 18.8145 15.1326 18.8143 15.3895 18.8695C15.6464 18.9246 15.8886 19.0339 16.1 19.19V19.19Z" fill="#24B162"/>
<path d="M7.67999 27.1C7.76999 26.47 8.24999 26.56 8.67999 26.56C10.68 26.56 12.59 26.56 14.55 26.56C14.92 26.56 15.55 26.35 15.49 27.07C15.43 27.61 15.29 28.16 14.49 28.14C12.32 28.14 10.15 28.14 7.96999 28.14L7.73 27.87L7.67999 27.1Z" fill="#026B30"/>
<path d="M16.1 19.19C14.2717 19.3 12.4384 19.3 10.61 19.19C10.4016 18.9236 10.2739 18.6031 10.242 18.2663C10.2101 17.9296 10.2753 17.5908 10.43 17.29L10.59 17.13H16.09C16.2605 17.4462 16.3506 17.7995 16.3524 18.1588C16.3541 18.518 16.2674 18.8722 16.1 19.19V19.19Z" fill="#FBFCFA"/>
<path d="M20.01 19.18H19.51C19.1814 18.8396 18.8959 18.4601 18.66 18.05C18.24 17.38 18.3 16.75 19 16.41C20 15.92 20.17 15.29 19.56 14.41C19.4812 14.2557 19.4466 14.0827 19.46 13.91L20.57 13.21C20.6524 13.0967 20.7634 13.0074 20.8917 12.9512C21.02 12.8949 21.1609 12.8738 21.3 12.89C21.5093 12.9127 21.7075 12.9961 21.87 13.13L22.39 13.36C22.6597 13.6264 22.8233 13.9818 22.85 14.36C22.8519 14.4868 22.828 14.6126 22.78 14.73C21.03 15.47 21.48 16.79 21.91 18.1C21.44 18.79 20.68 18.85 20.01 19.18Z" fill="#F18522"/>
<path d="M11.91 6.92998C11.7988 8.39312 11.4614 9.83018 10.91 11.19C10.64 12.09 10.74 12.52 11.85 12.45C13.27 12.36 14.7 12.45 16.13 12.45C16.135 12.5232 16.135 12.5967 16.13 12.67H10.64C10.3436 12.9078 9.97499 13.0373 9.59501 13.0373C9.21502 13.0373 8.8464 12.9078 8.55001 12.67C8.39001 11.13 9.55 10.28 10.35 9.24998C10.8935 8.58547 11.1809 7.74819 11.16 6.88998C11.2315 6.80794 11.3257 6.74895 11.4307 6.72047C11.5358 6.69198 11.6469 6.6953 11.75 6.72999C11.8274 6.77325 11.8848 6.84501 11.91 6.92998V6.92998Z" fill="#F2A298"/>
<path d="M21.88 18.16C21.82 18.05 21.77 17.93 21.71 17.81C20.71 15.81 20.71 15.81 22.71 14.72C23.57 14.97 23.48 15.97 24.06 16.43C24.0996 16.5467 24.0996 16.6733 24.06 16.79C23.82 17.09 23.4 17.08 23.06 17.32C23.1842 17.2175 23.3313 17.1465 23.4888 17.1131C23.6464 17.0797 23.8096 17.0848 23.9647 17.128C24.1199 17.1712 24.2623 17.2512 24.3798 17.3612C24.4974 17.4713 24.5867 17.6081 24.64 17.76C24.93 18.3 25.29 18.69 25.97 18.34C26.0289 18.3252 26.0906 18.3247 26.1497 18.3386C26.2089 18.3525 26.2639 18.3804 26.31 18.42L26.1 19.17H22.65C22.3463 18.931 22.0916 18.6356 21.9 18.3L21.88 18.16Z" fill="#F5C641"/>
<path d="M8.51001 12.65H10.6C10.6 14.13 10.6 15.65 10.6 17.09C10.2987 17.3252 9.92434 17.4471 9.5423 17.4343C9.16027 17.4215 8.79488 17.2749 8.51001 17.02V12.65Z" fill="#BE5043"/>
<path d="M21.36 13.14L20.57 13.22C19.98 11.05 20.57 9.02001 21.22 6.79001C22.16 7.69001 22.03 8.90001 22.66 9.73001C22.21 10.28 22.66 11.07 22.15 11.6C21.64 12.13 21.83 12.73 21.36 13.14Z" fill="#048F42"/>
<path d="M19.46 13.92C19.93 14.24 20.01 14.8 20.29 15.23C20.57 15.66 20.49 16.06 19.95 16.23C18.49 16.69 18.37 17.48 19.32 18.59C19.45 18.74 19.45 19 19.51 19.21H17.1C17.3576 17.7595 17.7907 16.3458 18.39 15C18.4723 14.7493 18.6118 14.5212 18.7976 14.3337C18.9833 14.1463 19.2101 14.0046 19.46 13.92V13.92Z" fill="#C7722E"/>
<path d="M6.08 21.33H17.16C17.42 21.62 17.28 21.84 17.05 22.05L16.89 22.1H6.33L6.08 21.33Z" fill="#444E48"/>
<path d="M8.52999 17.07L10.62 17.14C10.62 17.81 10.62 18.49 10.62 19.14H8.51999C8.51999 18.47 8.51999 17.77 8.52999 17.07Z" fill="#F1A196"/>
<path d="M22.93 21.3H26.93C27.35 21.3 27.84 21.19 27.93 21.83L27.84 22.08H23.34C22.93 22.08 22.48 22.21 22.13 21.84C22.11 21.24 22.48 21.21 22.93 21.3Z" fill="#016E31"/>
<path d="M26.32 18.42H26.11C25.11 19.17 24.91 18.28 24.52 17.68C24.13 17.08 24.1 16.56 24.82 16.21C25.22 16.01 25.56 15.58 26.11 15.78C26.3237 16.1823 26.4526 16.6241 26.4887 17.0782C26.5248 17.5323 26.4674 17.989 26.32 18.42V18.42Z" fill="#F5C743"/>
<path d="M24.25 14C24.81 14 25.14 14.47 25.56 14.75L26.03 15.6C25.4457 16.0774 24.7625 16.419 24.03 16.6V16.6C23.84 16.32 23.68 16.02 23.51 15.73C22.88 14.65 22.93 14.53 24.12 13.99L24.25 14Z" fill="#F5C742"/>
<path d="M15.3 25H5.08C5.31 24.71 5.46 24.33 5.86 24.21C6.19 24.39 6.64 24.09 6.86 24.49C6.94636 24.5003 7.03364 24.5003 7.12 24.49C9.75059 24.66 12.3894 24.66 15.02 24.49H15.28C15.3189 24.5195 15.3509 24.5572 15.3735 24.6005C15.3961 24.6437 15.4088 24.6915 15.4107 24.7403C15.4126 24.7891 15.4037 24.8377 15.3845 24.8826C15.3654 24.9275 15.3365 24.9676 15.3 25Z" fill="#65BC8C"/>
<path d="M13.68 6.81999L11.88 6.92999C11.8945 6.88446 11.8945 6.83553 11.88 6.78999C11.46 6.37999 11.57 5.78999 11.37 5.28999C13.19 4.79999 13.68 5.12999 13.68 6.81999Z" fill="#EA6D5D"/>
<path d="M23.98 16.58C24.5713 16.1135 25.252 15.7732 25.98 15.58C26.0104 15.6094 26.0335 15.6455 26.0474 15.6855C26.0613 15.7254 26.0656 15.7681 26.06 15.81C25.7639 15.9802 25.4799 16.1707 25.21 16.38C24.92 16.64 24.07 16.56 24.5 17.27C24.84 17.83 24.91 18.9 26.06 18.45C25.66 19.11 25.06 19.18 24.74 18.54C24.17 17.21 23.4 17.16 22.16 18.13C22.57 17 23.5 17.06 23.98 16.58Z" fill="#F39B2C"/>
<path d="M11.39 5.29001C12.29 5.54001 11.77 6.29001 11.9 6.79001L11.12 6.87001C10.9499 6.45336 10.9499 5.98665 11.12 5.57001L11.39 5.29001Z" fill="#BF5245"/>
<path d="M6.91 24.47C6.54 24.47 6.11 24.68 5.91 24.19L6.71 23.67C6.98 23.86 6.9 24.18 6.91 24.47Z" fill="#16944E"/>
<path d="M11.08 5.57001C11.08 6.01001 11.08 6.44001 11.08 6.87001C10.9251 6.68888 10.8399 6.45836 10.8399 6.22001C10.8399 5.98166 10.9251 5.75114 11.08 5.57001V5.57001Z" fill="#F2A298"/>
<path d="M15.3 25V24.51L16.61 23.44C16.98 22.72 17.75 22.44 18.3 21.95C18.65 21.62 19.15 21.57 19.54 21.32C19.6317 21.3227 19.722 21.2973 19.7988 21.2473C19.8757 21.1973 19.9354 21.1249 19.97 21.04C20.1548 20.6887 20.4177 20.3843 20.7383 20.1503C21.059 19.9163 21.429 19.7589 21.82 19.69C22.1555 19.4768 22.5603 19.4016 22.95 19.48C23.07 19.64 23.32 19.74 23.19 20.01C23.2562 20.4642 23.1529 20.927 22.9 21.31L22.11 21.86L20 23.4C19.8877 23.6702 19.7051 23.9054 19.4712 24.0812C19.2374 24.2571 18.9607 24.3671 18.67 24.4C17.55 24.9 16.79 25.98 15.57 26.3C15.6154 25.8492 15.5211 25.3954 15.3 25V25Z" fill="#98DEB8"/>
<path d="M25.58 23.7C25.29 24.55 24.96 25.57 24.58 26.59C24.5615 26.6753 24.5247 26.7557 24.472 26.8253C24.4193 26.8949 24.352 26.9522 24.2749 26.9931C24.1978 27.0341 24.1126 27.0577 24.0254 27.0623C23.9382 27.067 23.851 27.0525 23.77 27.02C23.38 26.9 23.38 26.53 23.46 26.26C23.7733 25.2267 24.1067 24.2067 24.46 23.2C24.58 22.86 24.81 22.56 25.24 22.71C25.67 22.86 25.52 23.22 25.58 23.7Z" fill="#006B2F"/>
<path d="M20.78 26.06C21.11 25.14 21.44 24.11 21.84 23.06C21.8603 22.985 21.8968 22.9153 21.947 22.856C21.9971 22.7967 22.0598 22.7491 22.1304 22.7167C22.201 22.6842 22.2779 22.6677 22.3556 22.6683C22.4333 22.6689 22.5099 22.6865 22.58 22.72C22.7211 22.7894 22.8316 22.9083 22.8906 23.054C22.9497 23.1997 22.953 23.362 22.9 23.51C22.59 24.51 22.24 25.51 21.9 26.51C21.79 26.81 21.58 27.07 21.22 27.02C20.86 26.97 20.88 26.5 20.78 26.06Z" fill="#006B2F"/>
<path d="M18.68 24.37C19.0483 23.9471 19.5015 23.6064 20.01 23.37C20.31 24.7 19.33 25.67 19.01 26.82C18.95 27.06 18.59 27.1 18.33 26.96C18.2684 26.938 18.2119 26.9036 18.1641 26.8589C18.1163 26.8143 18.0781 26.7604 18.0519 26.7004C18.0256 26.6405 18.012 26.5758 18.0116 26.5104C18.0113 26.445 18.0244 26.3802 18.05 26.32C18.27 25.68 18.48 25 18.68 24.37Z" fill="#016C31"/>
<path d="M22.68 14.48C22.484 14.1441 22.3902 13.7584 22.41 13.37C23.0624 13.422 23.6947 13.6203 24.26 13.95V13.95C23.7808 14.2452 23.2403 14.4265 22.68 14.48V14.48Z" fill="#ECC243"/>
<path d="M21.36 13.14C21.55 12.59 21.5 11.91 22.15 11.6C22.06 12.11 21.96 12.6 21.87 13.14H21.36Z" fill="#037534"/>
<path d="M15.07 24.49C12.4473 24.8249 9.79268 24.8249 7.17 24.49H15.07Z" fill="#16944E"/>
<path d="M18.51 22.12C17.9563 22.6485 17.3258 23.0901 16.64 23.43C16.72 22.98 16.81 22.54 16.89 22.09C17.43 21.78 17.97 21.59 18.51 22.12Z" fill="#0D9148"/>
<path d="M11.31 21.06H6.31C5.72 21.06 5.31 20.98 5.31 20.22C5.31 19.46 5.74 19.48 6.31 19.48C9.64333 19.48 12.9567 19.48 16.25 19.48C16.8 19.48 17.17 19.56 17.17 20.25C17.17 20.94 16.87 21.07 16.29 21.06C14.62 21 12.96 21.06 11.31 21.06Z" fill="#069043"/>
<path d="M23.22 20L22.98 19.47C24.59 19.47 26.2 19.47 27.81 19.47C28.38 19.47 28.71 19.61 28.71 20.27C28.71 20.93 28.34 21.06 27.79 21.05C26.834 21 25.876 21 24.92 21.05C24.02 21.15 23.45 20.89 23.22 20Z" fill="#0BB254"/>
<path d="M21.85 19.68C21.2994 20.2142 20.6767 20.6687 20 21.03H18.06C17.54 21.03 17.42 20.72 17.42 20.27C17.42 19.82 17.49 19.46 18.03 19.49C19.3 19.57 20.59 19.26 21.85 19.68Z" fill="#07B050"/>
<path d="M18.51 22.12H16.89L17.16 21.35H19.57C19.2921 21.6971 18.926 21.963 18.51 22.12V22.12Z" fill="#036E32"/>
<path d="M20.01 19.18C20.5082 18.6524 21.1646 18.3013 21.88 18.18V18.18C22.03 18.51 22.48 18.76 22.18 19.18H20.01Z" fill="#F5C641"/>
<path d="M22.17 19.19L21.87 18.19C22.0804 18.2686 22.2653 18.4034 22.4046 18.5797C22.5439 18.756 22.6322 18.9671 22.66 19.19H22.17Z" fill="#F0972B"/>
<path d="M22.68 14.48C23.18 14.29 23.61 13.85 24.22 13.98C22.64 14.72 24 15.71 23.99 16.59C23.16 16.25 23.12 15.34 22.67 14.73C22.6681 14.6465 22.6715 14.563 22.68 14.48Z" fill="#F39D2D"/>
</svg>
