<svg width="16" height="16" viewBox="0 0 16 16" fill="none" xmlns="http://www.w3.org/2000/svg">
<path d="M0.679998 7.68004C0.701986 6.19805 1.16317 4.75591 2.00517 3.53615C2.84717 2.31639 4.03212 1.37385 5.41004 0.827865C6.78797 0.281877 8.2969 0.156981 9.74584 0.468978C11.1948 0.780975 12.5186 1.51586 13.5497 2.58058C14.5808 3.6453 15.2728 4.99198 15.5382 6.45018C15.8035 7.90838 15.6303 9.41256 15.0404 10.7723C14.4505 12.132 13.4704 13.286 12.2243 14.0885C10.9781 14.8909 9.52193 15.3056 8.04 15.2801C7.05611 15.2697 6.08404 15.0643 5.18007 14.6757C4.2761 14.2871 3.45819 13.7231 2.77368 13.0163C2.08918 12.3095 1.55167 11.4739 1.19229 10.5579C0.832908 9.64194 0.658783 8.66376 0.679998 7.68004V7.68004Z" fill="#00B04F"/>
<path d="M12.05 4.85998C11.65 5.85998 11.11 6.95999 10.77 8.11999C10.6131 8.6834 10.3074 9.19421 9.88518 9.59888C9.46292 10.0035 8.93958 10.2871 8.37001 10.42C7.43001 10.73 6.53 11.18 5.6 11.55C5.44604 11.6645 5.25681 11.7214 5.06524 11.7108C4.87367 11.7001 4.69189 11.6227 4.55154 11.4918C4.4112 11.361 4.32117 11.185 4.29714 10.9947C4.27311 10.8043 4.31658 10.6116 4.42 10.45C4.94 9.12001 5.48 7.79001 6.02 6.45001C6.09793 6.26916 6.21163 6.10595 6.35426 5.97018C6.4969 5.83442 6.66553 5.7289 6.85 5.66C8.17 5.1 9.49 4.54999 10.85 4.01999C11.45 3.79999 11.95 3.89998 12.05 4.85998Z" fill="#FDFEFD"/>
<path d="M8.16 8.74998C8.03219 8.77328 7.90074 8.76699 7.77575 8.73155C7.65076 8.69611 7.53555 8.63249 7.43899 8.54558C7.34242 8.45867 7.26706 8.35073 7.2187 8.23015C7.17034 8.10957 7.15026 7.97951 7.16 7.84996C7.14138 7.71862 7.1527 7.58483 7.19309 7.45848C7.23349 7.33213 7.30193 7.21651 7.39329 7.12034C7.48465 7.02417 7.59657 6.94994 7.72069 6.90312C7.8448 6.8563 7.97789 6.83809 8.11 6.84996C8.74 6.84996 9.11 7.10998 9.11 7.74998C9.11 8.38998 8.86 8.73998 8.16 8.74998Z" fill="#05B252"/>
</svg>
