<svg width="16" height="16" viewBox="0 0 16 16" fill="none" xmlns="http://www.w3.org/2000/svg">
<path d="M7.90001 15.28C6.89558 15.3086 5.8957 15.1345 4.96003 14.7682C4.02436 14.4018 3.17209 13.8507 2.45411 13.1477C1.73612 12.4447 1.16713 11.6042 0.781117 10.6765C0.395101 9.74876 0.199963 8.75278 0.207356 7.74797C0.214749 6.74316 0.424521 5.75015 0.824147 4.8282C1.22377 3.90625 1.80506 3.07426 2.53331 2.38191C3.26156 1.68956 4.12185 1.15105 5.06281 0.798505C6.00377 0.445959 7.00611 0.286598 8.01001 0.329969C9.97494 0.345577 11.8553 1.13171 13.2466 2.5193C14.6379 3.90689 15.4291 5.7851 15.45 7.74998C15.52 11.33 12.41 15.51 7.90001 15.28Z" fill="#9A9A9A"/>
<path d="M1.52001 7.65007C1.5428 6.35697 1.95084 5.10004 2.6919 4.04011C3.43296 2.98019 4.47335 2.16544 5.68001 1.70006C7.02846 1.21781 8.49717 1.18721 9.86452 1.61293C11.2319 2.03865 12.4236 2.89756 13.26 4.06004C13.9745 5.1125 14.3746 6.34662 14.4136 7.61809C14.4525 8.88955 14.1287 10.1458 13.48 11.24C13.05 11.9 12.71 12.2401 11.74 11.7601C10.5735 11.0992 9.2557 10.7519 7.91501 10.7519C6.57433 10.7519 5.25652 11.0992 4.09001 11.7601C3.36001 12.1401 3.01001 12.04 2.60001 11.44C1.82356 10.3343 1.44302 8.99897 1.52001 7.65007V7.65007Z" fill="#FEFEFE"/>
<path d="M4.23999 13C5.31289 12.2511 6.58735 11.8446 7.89569 11.8339C9.20403 11.8232 10.485 12.2088 11.57 12.94C9.68001 14.69 6.74999 14.73 4.23999 13Z" fill="#FDFDFD"/>
<path d="M10.96 6.57C10.9666 6.96396 10.8955 7.35536 10.7508 7.72185C10.6061 8.08834 10.3906 8.42276 10.1167 8.70598C9.84276 8.9892 9.51572 9.21566 9.15426 9.37249C8.79279 9.52932 8.40398 9.61342 8.01001 9.61998C7.61605 9.62655 7.22465 9.55545 6.85816 9.41076C6.49167 9.26606 6.15726 9.05059 5.87404 8.77666C5.59082 8.50273 5.36434 8.17572 5.20751 7.81426C5.05068 7.4528 4.96658 7.06394 4.96001 6.66997C4.95345 6.27601 5.02454 5.88464 5.16924 5.51815C5.31394 5.15166 5.5294 4.81724 5.80333 4.53402C6.07727 4.2508 6.4043 4.02431 6.76577 3.86748C7.12723 3.71065 7.51604 3.62655 7.91001 3.61998C8.30397 3.61342 8.69539 3.68452 9.06188 3.82921C9.42837 3.97391 9.76276 4.18937 10.046 4.46331C10.3292 4.73724 10.5557 5.06428 10.7125 5.42574C10.8693 5.7872 10.9534 6.17603 10.96 6.57V6.57Z" fill="#9B9B9B"/>
<path d="M5.98999 6.57004C5.93519 6.28098 5.94484 5.98339 6.01825 5.69849C6.09166 5.41358 6.22702 5.14837 6.41468 4.92178C6.60235 4.6952 6.83769 4.5128 7.10394 4.3876C7.37018 4.26241 7.66077 4.19751 7.95498 4.19751C8.24919 4.19751 8.53978 4.26241 8.80603 4.3876C9.07227 4.5128 9.30763 4.6952 9.4953 4.92178C9.68296 5.14837 9.81831 5.41358 9.89172 5.69849C9.96513 5.98339 9.97478 6.28098 9.91998 6.57004C9.97478 6.8591 9.96513 7.15672 9.89172 7.44162C9.81831 7.72652 9.68296 7.99171 9.4953 8.21829C9.30763 8.44488 9.07227 8.62728 8.80603 8.75247C8.53978 8.87766 8.24919 8.94254 7.95498 8.94254C7.66077 8.94254 7.37018 8.87766 7.10394 8.75247C6.83769 8.62728 6.60235 8.44488 6.41468 8.21829C6.22702 7.99171 6.09166 7.72652 6.01825 7.44162C5.94484 7.15672 5.93519 6.8591 5.98999 6.57004Z" fill="#FDFDFD"/>
</svg>
