<svg width="14" height="13" viewBox="0 0 14 13" fill="none" xmlns="http://www.w3.org/2000/svg">
<path d="M7.16 6.21H12.4C12.8 6.21 13.33 6.07 13.4 6.76C13.47 7.45 12.91 7.36 12.48 7.37H1.83C1.4 7.37 0.899998 7.43 0.939998 6.75C0.979998 6.07 1.51 6.22 1.94 6.22C3.68 6.2 5.41 6.21 7.16 6.21Z" fill="#767676"/>
<path d="M1.24 2.65C1.39 2.14 0.869998 1.24 1.66 0.989996C2.63046 0.764972 3.63954 0.764972 4.61 0.989996C4.84 0.989996 4.82 1.33999 4.8 1.54999C4.80007 1.60425 4.7891 1.65795 4.76776 1.70783C4.74641 1.75772 4.71515 1.80273 4.67586 1.84015C4.63657 1.87757 4.59008 1.9066 4.53922 1.92549C4.48836 1.94437 4.43419 1.95271 4.38 1.94999C4.07741 1.98001 3.77259 1.98001 3.47 1.94999C2.47 1.78999 2.17 2.17999 2.25 3.15999C2.25 3.56999 2.64 4.36999 1.82 4.40999C0.819997 4.40999 1.39 3.59999 1.25 3.13999C1.22343 2.97796 1.22006 2.81298 1.24 2.65V2.65Z" fill="#6A6A6A"/>
<path d="M3.02999 12.7C2.52999 12.59 1.69999 13.01 1.40999 12.4C1.14545 11.4389 1.10101 10.4306 1.27999 9.44999C1.27999 9.20999 1.54999 9.13999 1.77999 9.14999C2.00999 9.15999 2.21999 9.23 2.24999 9.49C2.28982 9.79202 2.28982 10.098 2.24999 10.4C2.06999 11.46 2.55999 11.8 3.53999 11.65C3.7564 11.6349 3.97359 11.6349 4.18999 11.65C4.52999 11.65 4.77999 11.73 4.78999 12.14C4.79999 12.55 4.51999 12.72 4.12999 12.71C3.73999 12.7 3.44999 12.7 3.02999 12.7Z" fill="#6A6A6A"/>
<path d="M13.05 2.94C12.77 3.33 13.59 4.39 12.5 4.37C11.62 4.37 12.03 3.37 12.05 2.89C12.05 2.02 11.72 1.89 10.98 1.89C10.6483 1.93614 10.3117 1.93614 9.97999 1.89C9.883 1.88471 9.79004 1.84949 9.71388 1.7892C9.63773 1.72891 9.58212 1.64651 9.55471 1.55332C9.5273 1.46014 9.52944 1.36075 9.56083 1.26882C9.59222 1.1769 9.65131 1.09697 9.72999 1.04C10.6718 0.764324 11.6709 0.750494 12.62 1C13.29 1.13 12.99 1.86 13.05 2.34C13.07 2.49 13.05 2.67 13.05 2.94Z" fill="#686868"/>
<path d="M13.05 11C12.93 11.49 13.38 12.33 12.7 12.58C11.732 12.8255 10.718 12.8255 9.75 12.58C9.49 12.58 9.56 12.23 9.56 12.03C9.56 11.83 9.73 11.65 9.98 11.64C10.2828 11.615 10.5872 11.615 10.89 11.64C11.79 11.78 12.11 11.43 12.05 10.51C12.05 10.05 11.63 9.17999 12.54 9.17999C13.45 9.17999 12.9 10.04 13.05 10.51C13.0675 10.6729 13.0675 10.8371 13.05 11Z" fill="#686868"/>
</svg>
