<svg width="4" height="7" viewBox="0 0 4 7" fill="none" xmlns="http://www.w3.org/2000/svg">
<path d="M1.19001 6.33998C1.13001 6.33998 0.950008 6.24999 0.930008 6.16999C0.910008 6.08999 0.930008 5.76999 0.930008 5.70999C2.93001 4.31999 3.06001 2.94999 0.930008 1.53999C0.884597 1.50762 0.847578 1.46486 0.822037 1.41529C0.796495 1.36571 0.783173 1.31075 0.783173 1.25499C0.783173 1.19922 0.796495 1.14426 0.822037 1.09468C0.847578 1.04511 0.884597 1.00236 0.930008 0.96999C1.15001 0.74999 1.32001 0.909986 1.48001 1.05999L3.68001 3.18999C3.79129 3.31703 3.86412 3.4731 3.89001 3.63999C3.10708 4.6499 2.19993 5.55706 1.19001 6.33998Z" fill="#C8C8C8"/>
</svg>
