<svg width="9" height="10" viewBox="0 0 9 10" fill="none" xmlns="http://www.w3.org/2000/svg">
<path d="M3.55 0.660009C4.08905 0.627248 4.62791 0.727287 5.11929 0.951345C5.61067 1.1754 6.03955 1.51663 6.3683 1.94509C6.69705 2.37355 6.91563 2.87616 7.00484 3.40879C7.09406 3.94142 7.05118 4.48781 6.87999 5.00001C6.6656 5.41708 6.6176 5.9 6.7457 6.35111C6.87379 6.80221 7.16842 7.18784 7.56999 7.43001C7.86146 7.69147 8.13853 7.96854 8.39999 8.26001C8.59999 8.47001 8.69999 8.68001 8.46999 8.94001C8.42817 9.00397 8.37107 9.05651 8.30385 9.09287C8.23663 9.12923 8.16141 9.14826 8.08499 9.14826C8.00857 9.14826 7.93335 9.12923 7.86613 9.09287C7.79892 9.05651 7.74181 9.00397 7.69999 8.94001C7.57999 8.81001 7.44999 8.69001 7.32999 8.57001C6.45999 7.70001 5.84999 6.83001 4.18999 7.48001C2.35999 8.21001 0.369995 6.48001 0.189995 4.48001C0.109431 3.99952 0.136911 3.50713 0.270446 3.03859C0.403982 2.57006 0.640217 2.13716 0.961982 1.77134C1.28375 1.40552 1.68297 1.11598 2.13063 0.923749C2.57829 0.731516 3.06316 0.641419 3.55 0.660009Z" fill="#9A9A9A"/>
<path d="M3.74999 1.7C4.06606 1.69596 4.37946 1.75827 4.66995 1.8829C4.96044 2.00753 5.22156 2.19171 5.43643 2.42355C5.6513 2.65538 5.81515 2.92972 5.91739 3.22882C6.01963 3.52792 6.05799 3.84515 6.02999 4.16C6.01426 4.79747 5.74653 5.40272 5.28545 5.84318C4.82436 6.28365 4.20751 6.52343 3.56999 6.51C3.2429 6.51493 2.91823 6.45321 2.61576 6.32862C2.31329 6.20402 2.03935 6.01915 1.81063 5.78526C1.58191 5.55138 1.40321 5.27338 1.2854 4.9682C1.16759 4.66302 1.11314 4.33705 1.12537 4.01015C1.13761 3.68325 1.21626 3.36227 1.35655 3.06675C1.49684 2.77123 1.69583 2.50736 1.94138 2.29122C2.18694 2.07509 2.47394 1.91121 2.78487 1.80956C3.09581 1.70792 3.42418 1.67064 3.74999 1.7V1.7Z" fill="#FDFDFD"/>
</svg>
